<?xml version="1.0" encoding="UTF-8"?>
<svg version="1.1" xmlns="http://www.w3.org/2000/svg" width="500" height="500">
<path d="M0 0 C165 0 330 0 500 0 C500 165 500 330 500 500 C335 500 170 500 0 500 C0 335 0 170 0 0 Z " fill="#FDFDFD" transform="translate(0,0)"/>
<path d="M0 0 C20.79 0 41.58 0 63 0 C68.62442713 13.49862511 68.62442713 13.49862511 70.31640625 18.65625 C70.68830078 19.78160156 71.06019531 20.90695312 71.44335938 22.06640625 C71.81267578 23.19949219 72.18199219 24.33257812 72.5625 25.5 C72.93568359 26.63308594 73.30886719 27.76617187 73.69335938 28.93359375 C74.43715682 31.19215087 75.17952659 33.45117871 75.92041016 35.71069336 C78.42270947 43.33472741 80.95649297 50.94361302 83.63818359 58.5065918 C92.32211384 83.00117919 92.32211384 83.00117919 93 93 C93.99 93 94.98 93 96 93 C96.08507812 92.08992188 96.17015625 91.17984375 96.2578125 90.2421875 C97.05692053 84.66525462 99.04892846 79.43304307 100.875 74.125 C101.22691406 73.08730469 101.57882813 72.04960937 101.94140625 70.98046875 C102.60509463 69.02394501 103.27126931 67.06826131 103.94091797 65.11376953 C104.78345594 62.63665352 105.61504911 60.15667345 106.44042969 57.67382812 C107.92295255 53.21940542 109.43692551 48.77630988 110.9609375 44.3359375 C111.5208461 42.70182729 112.08074151 41.06771256 112.640625 39.43359375 C113.50465828 36.91317161 114.36888827 34.3928172 115.23339844 31.87255859 C116.08062612 29.4022057 116.9270646 26.93158336 117.7734375 24.4609375 C118.14714981 23.37261124 118.14714981 23.37261124 118.52841187 22.26229858 C121.06479263 14.85610757 123.52409177 7.4277247 126 0 C146.79 0 167.58 0 189 0 C189 3.3 189 6.6 189 10 C187.68 10.4125 186.36 10.825 185 11.25 C177.44331018 13.65303833 177.44331018 13.65303833 171 18 C170.90463758 21.16612663 170.87449364 24.31040628 170.88647461 27.47680664 C170.88625557 28.96932198 170.88625557 28.96932198 170.8860321 30.49198914 C170.88673169 33.79806662 170.89452621 37.10408854 170.90234375 40.41015625 C170.90420777 42.69559193 170.90563175 44.98102801 170.90663147 47.26646423 C170.91045793 53.29498387 170.9202893 59.32347959 170.93133545 65.35198975 C170.94154683 71.49832841 170.9461285 77.64467093 170.95117188 83.79101562 C170.96191146 95.86068762 170.9789894 107.93034182 171 120 C171.61665024 120.20301224 172.23330048 120.40602448 172.86863708 120.6151886 C173.67825394 120.88308701 174.48787079 121.15098541 175.32202148 121.42700195 C176.12429672 121.69188919 176.92657196 121.95677643 177.75315857 122.22969055 C181.62989642 123.55879538 185.27989143 125.28756907 189 127 C189 129.97 189 132.94 189 136 C166.23 136 143.46 136 120 136 C120 133.03 120 130.06 120 127 C121.5194799 126.22650218 123.04066567 125.4563552 124.5625 124.6875 C125.40941406 124.25824219 126.25632812 123.82898438 127.12890625 123.38671875 C130.37117508 121.82072496 133.69048514 120.41836351 137 119 C137.495 71.975 137.495 71.975 138 24 C137.34 24 136.68 24 136 24 C135.75890503 24.94637329 135.75890503 24.94637329 135.51293945 25.91186523 C133.44753541 33.7691805 130.87681666 41.39946405 128.1875 49.0625 C127.28345736 51.65565989 126.38194173 54.24969587 125.48046875 56.84375 C125.04911621 58.08382812 124.61776367 59.32390625 124.17333984 60.6015625 C122.74349953 64.7429227 121.36332804 68.89889015 120 73.0625 C117.0212424 82.133375 113.76775316 91.10725007 110.51367188 100.08227539 C108.38825604 105.97429844 106.36751095 111.8500863 104.68237305 117.88427734 C103.77333839 120.70277265 102.49243561 123.23451227 101.0625 125.8203125 C99.46166441 129.10437963 98.28281552 132.5791586 97 136 C90.4 136 83.8 136 77 136 C73.94210211 128.94984652 71.28419734 121.99698696 69.1015625 114.6328125 C67.79113814 110.31120026 66.37329134 106.0312848 64.9375 101.75 C64.69201416 101.01765137 64.44652832 100.28530273 64.19360352 99.53076172 C63.70633028 98.07889968 63.21845232 96.62724046 62.72998047 95.17578125 C62.00322862 93.00962322 61.28470859 90.84084737 60.56640625 88.671875 C58.76466245 83.26254741 56.8812541 77.8820841 55 72.5 C52.89204869 66.46935735 50.79769678 60.43657673 48.79052734 54.37158203 C47.86003443 51.58010328 46.90851485 48.79611093 45.95703125 46.01171875 C45.24210611 43.90367343 44.52726356 41.79560011 43.8125 39.6875 C43.26045898 38.08165039 43.26045898 38.08165039 42.69726562 36.44335938 C42.34986328 35.41404297 42.00246094 34.38472656 41.64453125 33.32421875 C41.17043823 31.9333606 41.17043823 31.9333606 40.68676758 30.5144043 C40 28 40 28 40 24 C39.01 24 38.02 24 37 24 C37.33 55.02 37.66 86.04 38 118 C43.61 120.97 49.22 123.94 55 127 C55 129.97 55 132.94 55 136 C36.85 136 18.7 136 0 136 C0 91.12 0 46.24 0 0 Z " fill="#2D2C2A" transform="translate(0,281)"/>
<path d="M0 0 C10.13702245 -0.0933561 20.27393989 -0.16409374 30.41130733 -0.20724869 C35.12030844 -0.22797808 39.82901191 -0.25602202 44.5378418 -0.30175781 C49.09609901 -0.34574575 53.65407297 -0.36924669 58.21252632 -0.37950897 C59.93736788 -0.38680668 61.66219684 -0.40105191 63.38691521 -0.42292023 C87.48332329 -0.71583675 109.51832033 5.23846034 127.421875 22.14453125 C139.27775609 35.27581772 142.31678278 50.47559511 142.4375 67.6875 C142.45296875 69.54097046 142.45296875 69.54097046 142.46875 71.43188477 C142.39490794 79.08223032 141.44339814 85.75214161 139 93 C138.64679688 94.093125 138.29359375 95.18625 137.9296875 96.3125 C134.88605279 104.06813216 130.66996874 109.92503349 125 116 C124.40703125 116.64710938 123.8140625 117.29421875 123.203125 117.9609375 C114.16743364 126.79672418 101.17073852 131.64020209 89 134 C87.83339844 134.33773437 86.66679687 134.67546875 85.46484375 135.0234375 C77.6742236 136.74807823 69.55764484 136.24438331 61.62109375 136.1953125 C59.84033874 136.19157697 58.05958166 136.18873255 56.27882385 136.18673706 C51.61817637 136.17914307 46.95765583 136.15953147 42.29705811 136.1373291 C37.53073849 136.11677892 32.76439813 136.10771582 27.99804688 136.09765625 C18.66530916 136.07628116 9.33266519 136.042197 0 136 C0 133.03 0 130.06 0 127 C2.08333333 126.08854167 4.16666667 125.17708333 6.25 124.265625 C9.87467042 122.59745282 13.43113082 120.78443459 17 119 C17 85.34 17 51.68 17 17 C12.05 14.69 7.1 12.38 2 10 C1.34 9.67 0.68 9.34 0 9 C0 6.03 0 3.06 0 0 Z " fill="#2E2D2B" transform="translate(358,281)"/>
<path d="M0 0 C39.93 0 79.86 0 121 0 C121 12.87 121 25.74 121 39 C116.05 39 111.1 39 106 39 C105.65066406 37.64003906 105.30132812 36.28007812 104.94140625 34.87890625 C104.48195158 33.10672396 104.02230633 31.33459108 103.5625 29.5625 C103.33240234 28.66466797 103.10230469 27.76683594 102.86523438 26.84179688 C102.53168945 25.56079102 102.53168945 25.56079102 102.19140625 24.25390625 C101.88505249 23.06776733 101.88505249 23.06776733 101.57250977 21.85766602 C101.15967047 20.0038412 101.15967047 20.0038412 100 19 C98.46617321 18.8774645 96.92689481 18.82222062 95.38842773 18.79467773 C94.40748642 18.77473251 93.4265451 18.75478729 92.4158783 18.73423767 C90.81589745 18.70916893 90.81589745 18.70916893 89.18359375 18.68359375 C88.0974025 18.66281265 87.01121124 18.64203156 85.8921051 18.62062073 C82.40730373 18.55500558 78.92242432 18.49618489 75.4375 18.4375 C73.08137199 18.39432615 70.72525201 18.35071224 68.36914062 18.30664062 C62.57950604 18.19848037 56.78981602 18.09949592 51 18 C51 30.87 51 43.74 51 57 C59.91 56.67 68.82 56.34 78 56 C79.83923336 51.70845548 81.42274933 47.95901425 82.6875 43.5625 C83.120625 42.056875 83.55375 40.55125 84 39 C87.96 39 91.92 39 96 39 C96 56.49 96 73.98 96 92 C92.04 92 88.08 92 84 92 C83.65066406 90.85660156 83.30132812 89.71320313 82.94140625 88.53515625 C82.48193537 87.04422012 82.02229099 85.55333745 81.5625 84.0625 C81.33240234 83.30775391 81.10230469 82.55300781 80.86523438 81.77539062 C79.96998264 78.09791548 79.96998264 78.09791548 78 75 C76.00217874 74.84174742 73.99911166 74.74880829 71.99609375 74.68359375 C70.90224365 74.64548584 69.80839355 74.60737793 68.68139648 74.56811523 C67.28091064 74.52501221 65.8804248 74.48190918 64.4375 74.4375 C60.003125 74.293125 55.56875 74.14875 51 74 C51 88.52 51 103.04 51 118 C69.48 117.67 87.96 117.34 107 117 C108.67935424 111.97826059 108.67935424 111.97826059 110.0703125 106.9140625 C110.33134766 105.86025391 110.33134766 105.86025391 110.59765625 104.78515625 C110.77167969 104.07230469 110.94570313 103.35945313 111.125 102.625 C111.30675781 101.88894531 111.48851562 101.15289062 111.67578125 100.39453125 C112.11935562 98.59688777 112.55998266 96.79851746 113 95 C117.95 95 122.9 95 128 95 C128 108.53 128 122.06 128 136 C85.76 136 43.52 136 0 136 C0 133.03 0 130.06 0 127 C6.01521991 124.23108925 11.63216377 122.12261208 18 120 C18 86.01 18 52.02 18 17 C14.04 15.35 10.08 13.7 6 12 C3.98675854 11.02693329 1.97754443 10.043704 0 9 C0 6.03 0 3.06 0 0 Z " fill="#2D2C2A" transform="translate(209,281)"/>
<path d="M0 0 C1.76339775 -0.01608594 3.52683787 -0.02757234 5.2902832 -0.03710938 C6.76329643 -0.04744202 6.76329643 -0.04744202 8.2660675 -0.0579834 C23.91631193 0.27393934 41.53454635 11.47461393 52.20703125 22.22265625 C63.88805671 34.8572348 70.15229325 49.90275203 70.25 67.0625 C70.270625 67.94099609 70.29125 68.81949219 70.3125 69.72460938 C70.38703396 82.53513329 66.12748829 92.60608723 60.125 103.75 C59.51269531 104.91660156 58.90039062 106.08320313 58.26953125 107.28515625 C55.37867342 112.75116794 52.43314277 118.1297654 49.03857422 123.30078125 C46.97131704 126.68303559 45.52932329 130.35270823 44 134 C43.37931641 135.37671875 43.37931641 135.37671875 42.74609375 136.78125 C38.22050099 147.04826641 36.23843918 156.85404742 35 168 C23.12 168 11.24 168 -1 168 C-1.02802763 156.31247868 -1.05131038 144.6250384 -1.0625 132.9375 C-1.06335602 132.04991627 -1.06421204 131.16233253 -1.06509399 130.24785233 C-1.09106785 99.64143181 -0.87707247 69.04151719 -0.5 38.4375 C-0.48804218 37.46650738 -0.47608437 36.49551476 -0.46376419 35.49509811 C-0.31731911 23.66328782 -0.16287387 11.83159546 0 0 Z " fill="#FBCA35" transform="translate(272,55)"/>
<path d="M0 0 C31.32790224 0 31.32790224 0 43 11 C56.78363186 26.31855745 57.23373289 45.99267003 56.29296875 65.64941406 C55.35524551 76.37384214 51.01072341 84.94760217 43.734375 92.88671875 C28.99086328 104.28134709 21.27367998 100 0 100 C0 67 0 34 0 0 Z " fill="#FDFDFD" transform="translate(409,299)"/>
<path d="M0 0 C1.890625 0.87109375 1.890625 0.87109375 3.890625 3.87109375 C5.8493293 3.7303306 7.80758593 3.58332615 9.765625 3.43359375 C11.40144531 3.31177734 11.40144531 3.31177734 13.0703125 3.1875 C15.83791471 3.04107672 15.83791471 3.04107672 17.890625 1.87109375 C20.890625 1.62109375 20.890625 1.62109375 23.890625 1.87109375 C25.890625 4.87109375 25.890625 4.87109375 25.828125 7.43359375 C24.890625 9.87109375 24.890625 9.87109375 22.33203125 11.0234375 C21.52636719 11.30316406 20.72070312 11.58289063 19.890625 11.87109375 C19.78395508 12.84409424 19.67728516 13.81709473 19.56738281 14.81958008 C18.45505006 24.54027159 16.7554128 34.00721159 14.640625 43.55859375 C14.17527844 45.69826968 13.71241295 47.83847404 13.24952698 49.97868347 C12.93495478 51.43199789 12.61955664 52.88513378 12.30332947 54.33808899 C10.63166887 62.02529402 9.03898341 69.72830663 7.453125 77.43359375 C7.1943457 78.68809326 6.93556641 79.94259277 6.66894531 81.23510742 C6.0753735 84.11360501 5.48286663 86.99232218 4.890625 89.87109375 C-1.379375 89.87109375 -7.649375 89.87109375 -14.109375 89.87109375 C-15.27936552 86.36112218 -15.24932964 83.20809828 -15.23876953 79.55737305 C-15.24052185 78.81554779 -15.24227417 78.07372253 -15.24407959 77.30941772 C-15.24848399 74.85469224 -15.24556416 72.40003873 -15.2421875 69.9453125 C-15.24286116 68.23761481 -15.24383171 66.52991721 -15.24508667 64.82221985 C-15.24656191 61.24027597 -15.24441545 57.658357 -15.23974609 54.07641602 C-15.23406185 49.49329222 -15.23732062 44.91022715 -15.24331856 40.32710552 C-15.2469399 36.79858461 -15.24577813 33.27007751 -15.24319077 29.74155617 C-15.24252518 28.0523255 -15.24333702 26.36309356 -15.24567032 24.67386436 C-15.24822122 22.3068754 -15.24432141 19.93998008 -15.23876953 17.57299805 C-15.24079376 16.87927597 -15.24281799 16.18555389 -15.24490356 15.47080994 C-15.22773688 11.50273143 -14.86992118 7.76514774 -14.109375 3.87109375 C-11.634375 4.86109375 -11.634375 4.86109375 -9.109375 5.87109375 C-8.65046875 5.42636719 -8.1915625 4.98164063 -7.71875 4.5234375 C-7.10515625 3.95753906 -6.4915625 3.39164063 -5.859375 2.80859375 C-5.25609375 2.24011719 -4.6528125 1.67164063 -4.03125 1.0859375 C-2.109375 -0.12890625 -2.109375 -0.12890625 0 0 Z " fill="#FACC31" transform="translate(286.109375,132.12890625)"/>
<path d="M0 0 C2.625 0.375 2.625 0.375 5 1 C5.38218767 2.65614657 5.71395102 4.32457024 6 6 C5.67 6.33 5.34 6.66 5 7 C4.87778475 8.44184293 4.82227242 9.88943144 4.79467773 11.33618164 C4.77473251 12.2570607 4.75478729 13.17793976 4.73423767 14.12672424 C4.71752518 15.12775681 4.70081268 16.12878937 4.68359375 17.16015625 C4.6524221 18.68956093 4.6524221 18.68956093 4.62062073 20.24986267 C4.55501148 23.52067048 4.49618766 26.79156137 4.4375 30.0625 C4.39432558 32.27409728 4.35071166 34.48568603 4.30664062 36.69726562 C4.1993186 42.13142151 4.09757377 47.56566082 4 53 C-0.87791587 52.36718929 -4.89911203 51.4109002 -9.4375 49.5 C-14.41663164 47.5048976 -18.65922327 46.31416334 -24 46 C-24.08636719 46.69351563 -24.17273438 47.38703125 -24.26171875 48.1015625 C-25.17920582 51.70354878 -26.81035094 54.24733858 -28.8125 57.375 C-31.66523955 61.86017024 -34.39205506 66.37016516 -37 71 C-36.36199463 70.99476318 -35.72398926 70.98952637 -35.06665039 70.98413086 C-21.99364404 70.89139785 -9.04067512 71.05513849 4 72 C4.02505615 72.85231201 4.0501123 73.70462402 4.07592773 74.58276367 C4.17135569 77.76044966 4.27057124 80.93798894 4.37231445 84.11547852 C4.4154884 85.48782776 4.45717501 86.86022467 4.49731445 88.23266602 C4.55544392 90.21122068 4.6194571 92.1895997 4.68359375 94.16796875 C4.72025146 95.35672607 4.75690918 96.5454834 4.79467773 97.77026367 C4.90944686 100.95260086 4.90944686 100.95260086 5.64477539 103.80200195 C5.76199951 104.52734131 5.87922363 105.25268066 6 106 C5.34 106.66 4.68 107.32 4 108 C2.32401931 107.71719686 0.65837856 107.37238347 -1 107 C-3.26995419 106.93347145 -5.54168695 106.91456249 -7.8125 106.9375 C-9.854375 106.958125 -11.89625 106.97875 -14 107 C-14.33 111.95 -14.66 116.9 -15 122 C-8.73 122 -2.46 122 4 122 C4 136.85 4 151.7 4 167 C-3.59 167 -11.18 167 -19 167 C-19.33 159.41 -19.66 151.82 -20 144 C-24.62 143.67 -29.24 143.34 -34 143 C-34.53109375 141.80761719 -35.0621875 140.61523438 -35.609375 139.38671875 C-36.32234831 137.82005372 -37.03592148 136.25366159 -37.75 134.6875 C-38.09804687 133.90181641 -38.44609375 133.11613281 -38.8046875 132.30664062 C-40.71816456 128.14305629 -42.08721092 125.57076343 -46 123 C-46.3125 119.875 -46.3125 119.875 -46 117 C-45 116 -45 116 -42.5 115.875 C-40 116 -40 116 -39 117 C-38.85884839 119.67058851 -38.95752893 122.32432238 -39 125 C-34.05 124.01 -34.05 124.01 -29 123 C-29.4125 121.96875 -29.825 120.9375 -30.25 119.875 C-32.57467671 113.71293828 -34.24522812 107.34211969 -36 101 C-38.64590014 100.97315321 -41.29153096 100.95323643 -43.9375 100.9375 C-45.06961914 100.92493164 -45.06961914 100.92493164 -46.22460938 100.91210938 C-48.14994313 100.90347559 -50.07535581 100.94775667 -52 101 C-52.495 101.495 -52.495 101.495 -53 102 C-55.5 102.125 -55.5 102.125 -58 102 C-59 101 -59 101 -59.125 98 C-59 95 -59 95 -58 94 C-56.33382885 93.95936168 -54.66611905 93.957279 -53 94 C-52.67 94.99 -52.34 95.98 -52 97 C-50.21142578 96.96519531 -50.21142578 96.96519531 -48.38671875 96.9296875 C-46.82031876 96.91092822 -45.253912 96.89272819 -43.6875 96.875 C-42.90181641 96.85824219 -42.11613281 96.84148437 -41.30664062 96.82421875 C-40.54931641 96.81777344 -39.79199219 96.81132812 -39.01171875 96.8046875 C-38.31522217 96.79421387 -37.61872559 96.78374023 -36.90112305 96.77294922 C-35 97 -35 97 -32 99 C-31.12451172 100.84423828 -31.12451172 100.84423828 -30.4296875 103.0703125 C-30.17316406 103.885 -29.91664063 104.6996875 -29.65234375 105.5390625 C-29.39582031 106.39242187 -29.13929688 107.24578125 -28.875 108.125 C-28.47861328 109.37023437 -28.47861328 109.37023437 -28.07421875 110.640625 C-26.4899803 115.77130588 -25.5061748 120.65430032 -25 126 C-28.3 126.99 -31.6 127.98 -35 129 C-34.05066101 132.35433109 -33.10251165 135.69246505 -32 139 C-30.10388566 138.85786703 -28.20811606 138.71113093 -26.3125 138.5625 C-25.25675781 138.48128906 -24.20101562 138.40007812 -23.11328125 138.31640625 C-20.03525063 138.07295247 -20.03525063 138.07295247 -17.23046875 137.33984375 C-16.12638672 137.17162109 -16.12638672 137.17162109 -15 137 C-13 139 -13 139 -12.875 141.625 C-12.91625 142.40875 -12.9575 143.1925 -13 144 C-13.66 144.33 -14.32 144.66 -15 145 C-15.33 151.27 -15.66 157.54 -16 164 C-10.72 164 -5.44 164 0 164 C0 151.46 0 138.92 0 126 C-6.27 126 -12.54 126 -19 126 C-19.4375 116.8125 -19.4375 116.8125 -19.56811523 113.94458008 C-19.73908707 110.53924034 -19.92294557 107.34879669 -20.66015625 104.01171875 C-20.77230469 103.34785156 -20.88445312 102.68398437 -21 102 C-20.34 101.34 -19.68 100.68 -19 100 C-14.44444444 100.55555556 -14.44444444 100.55555556 -13 102 C-11.16884117 102.09851171 -9.33380067 102.12972629 -7.5 102.125 C-5.99953125 102.12886719 -5.99953125 102.12886719 -4.46875 102.1328125 C-2.05600378 102.27870382 -2.05600378 102.27870382 -1 101 C-0.84193469 99.07521187 -0.748865 97.1450079 -0.68359375 95.21484375 C-0.64548584 94.16159912 -0.60737793 93.10835449 -0.56811523 92.02319336 C-0.52501221 90.67491455 -0.48190918 89.32663574 -0.4375 87.9375 C-0.293125 83.668125 -0.14875 79.39875 0 75 C-8.58 75 -17.16 75 -26 75 C-26 79.95 -26 84.9 -26 90 C-33.19964924 89.47556512 -39.61955672 88.21006351 -46.5 86.0625 C-47.39203125 85.79759766 -48.2840625 85.53269531 -49.203125 85.25976562 C-55.73418757 83.26581243 -55.73418757 83.26581243 -58 81 C-59.07428277 77.97722056 -59.98027105 74.91998757 -60.90234375 71.84765625 C-61.97595596 69.06237761 -62.87245787 67.97172214 -65 66 C-65.25 63.375 -65.25 63.375 -65 61 C-64 60 -64 60 -61 59.875 C-58 60 -58 60 -57 61 C-57.061875 62.134375 -57.12375 63.26875 -57.1875 64.4375 C-57.13822187 69.9172275 -56.63954606 74.70208077 -53 79 C-47.82837042 81.44342411 -42.55807458 82.74645475 -37 84 C-35.49382657 84.37110475 -33.98857322 84.74596855 -32.484375 85.125 C-31.33453125 85.41375 -30.1846875 85.7025 -29 86 C-29 82.04 -29 78.08 -29 74 C-34.58500567 74.19898708 -34.58500567 74.19898708 -39 77 C-41.625 76.625 -41.625 76.625 -44 76 C-44.33 74.35 -44.66 72.7 -45 71 C-44.24332031 70.61199219 -43.48664063 70.22398438 -42.70703125 69.82421875 C-39.65620214 67.76832092 -38.46780746 66.00049242 -36.6875 62.8125 C-35.3571875 60.4303125 -35.3571875 60.4303125 -34 58 C-39.94 58 -45.88 58 -52 58 C-52.19009454 54.33087371 -52.3281968 50.67169527 -52.4375 47 C-52.49615234 45.97003906 -52.55480469 44.94007812 -52.61523438 43.87890625 C-52.73817387 38.36419161 -52.50650184 34.85578841 -48.8125 30.59375 C-47.56492193 29.37163271 -46.29496573 28.17178729 -45 27 C-44.0384946 26.0147633 -43.08097617 25.02560751 -42.12890625 24.03125 C-41.28199219 23.1959375 -40.43507812 22.360625 -39.5625 21.5 C-38.69753906 20.6440625 -37.83257812 19.788125 -36.94140625 18.90625 C-35.98041016 17.96265625 -35.98041016 17.96265625 -35 17 C-31.7173068 18.49076434 -29.06922559 20.38620321 -26.25 22.625 C-25.45078125 23.25664063 -24.6515625 23.88828125 -23.828125 24.5390625 C-23.22484375 25.02117187 -22.6215625 25.50328125 -22 26 C-22.14029419 23.8537974 -22.28738164 21.70803782 -22.4375 19.5625 C-22.51871094 18.36753906 -22.59992188 17.17257813 -22.68359375 15.94140625 C-22.67656114 13.11429756 -22.67656114 13.11429756 -24 12 C-24.1875 9.5625 -24.1875 9.5625 -24 7 C-23.34 6.34 -22.68 5.68 -22 5 C-19.375 5.375 -19.375 5.375 -17 6 C-16.375 8.3125 -16.375 8.3125 -16 11 C-16.66 11.99 -17.32 12.98 -18 14 C-18.35667801 17.32836471 -18.35667801 17.32836471 -18.3125 21 C-18.32925781 22.2375 -18.34601563 23.475 -18.36328125 24.75 C-17.97482563 28.22521583 -17.59613353 28.88155504 -15 31 C-15.25146579 33.13745922 -15.45925779 34.45925779 -17 36 C-18.66617115 36.04063832 -20.33388095 36.042721 -22 36 C-22.2475 34.7315625 -22.2475 34.7315625 -22.5 33.4375 C-24.51287455 28.82466249 -27.64818617 25.57003345 -32 23 C-36.82069059 23.01006407 -40.5202525 27.30867787 -43.83300781 30.42089844 C-50.49809064 37.55879984 -49.26593048 45.69243322 -49 55 C-43.06 55 -37.12 55 -31 55 C-30.67 53.68 -30.34 52.36 -30 51 C-29.18907006 49.39409285 -28.33254423 47.81058994 -27.4375 46.25 C-26.98246094 45.45078125 -26.52742188 44.6515625 -26.05859375 43.828125 C-25.70925781 43.22484375 -25.35992187 42.6215625 -25 42 C-19.23352917 41.54624492 -14.51213964 43.19887801 -9.125 45 C-8.24585938 45.28617188 -7.36671875 45.57234375 -6.4609375 45.8671875 C-4.30460124 46.57034063 -2.15123899 47.28143394 0 48 C-0.11792986 42.32154468 -0.24215403 36.64327605 -0.37231445 30.96508789 C-0.41573041 29.03185815 -0.45740042 27.09858841 -0.49731445 25.1652832 C-0.55485631 22.39261798 -0.6185962 19.62015543 -0.68359375 16.84765625 C-0.70030624 15.97786636 -0.71701874 15.10807648 -0.73423767 14.21192932 C-0.45026213 10.28884034 -0.45026213 10.28884034 -2 7 C-2.1875 4.5625 -2.1875 4.5625 -2 2 C-1.34 1.34 -0.68 0.68 0 0 Z " fill="#22283C" transform="translate(258,55)"/>
<path d="M0 0 C4.1726742 0.83453484 7.37720363 1.85930794 11.25 3.5 C12.83554687 4.16515625 12.83554687 4.16515625 14.453125 4.84375 C17 6 17 6 18 7 C18.11668511 10.1194182 18.16803883 13.21697833 18.17700195 16.33740234 C18.18357315 17.31784012 18.19014435 18.29827789 18.19691467 19.3084259 C18.21669913 22.56759711 18.22832085 25.82672216 18.23828125 29.0859375 C18.24235678 30.19556477 18.2464323 31.30519203 18.25063133 32.44844437 C18.2715127 38.31979437 18.28580623 44.19112085 18.29516602 50.0625 C18.30624302 56.14153925 18.34065215 62.2202137 18.38033772 68.29912376 C18.40642223 72.96073103 18.41485051 77.62225026 18.41844749 82.2839241 C18.42333355 84.52550346 18.43500438 86.76707838 18.45348549 89.00858688 C18.47770633 92.14062563 18.47694322 95.27170584 18.4699707 98.40380859 C18.48278076 99.33587631 18.49559082 100.26794403 18.50878906 101.22825623 C18.50184525 102.08076462 18.49490143 102.93327301 18.48774719 103.81161499 C18.49013555 104.55235952 18.4925239 105.29310406 18.49498463 106.05629539 C18 108 18 108 14 111 C9.38 112.98 4.76 114.96 0 117 C0 78.39 0 39.78 0 0 Z " fill="#FCFCFC" transform="translate(0,291)"/>
<path d="M0 0 C16.83 0 33.66 0 51 0 C48.10147488 7.24631281 44.89792704 10.53740421 38 14 C37.07445312 14.52335937 36.14890625 15.04671875 35.1953125 15.5859375 C28.92868301 18.35918918 21.6884172 18.04589364 15.1484375 16.19140625 C8.78429407 13.34428945 3.8775037 8.78376251 0 3 C0 2.01 0 1.02 0 0 Z " fill="#091433" transform="translate(246,256)"/>
<path d="M0 0 C1.16337891 0.00966797 2.32675781 0.01933594 3.52539062 0.02929688 C4.74033203 0.05443359 5.95527344 0.07957031 7.20703125 0.10546875 C8.43357422 0.11900391 9.66011719 0.13253906 10.92382812 0.14648438 C13.95591575 0.18187839 16.98777816 0.2356858 20.01953125 0.29296875 C20.01953125 5.24296875 20.01953125 10.19296875 20.01953125 15.29296875 C21.00953125 15.29296875 21.99953125 15.29296875 23.01953125 15.29296875 C23.01953125 16.28296875 23.01953125 17.27296875 23.01953125 18.29296875 C18.39953125 18.29296875 13.77953125 18.29296875 9.01953125 18.29296875 C8.68953125 19.61296875 8.35953125 20.93296875 8.01953125 22.29296875 C4.02873024 26.01771636 -0.39871368 25.61468088 -5.5546875 25.59375 C-7.98046875 25.29296875 -7.98046875 25.29296875 -9.98046875 23.29296875 C-9.60546875 20.79296875 -9.60546875 20.79296875 -8.98046875 18.29296875 C-8.98046875 16.64806176 -9.02683788 15.00321995 -9.0859375 13.359375 C-9.11300781 12.20308594 -9.14007813 11.04679687 -9.16796875 9.85546875 C-9.20277344 8.70175781 -9.23757812 7.54804688 -9.2734375 6.359375 C-8.98046875 3.29296875 -8.98046875 3.29296875 -7.8359375 1.61962891 C-5.18537596 -0.27552259 -3.23360924 -0.04732111 0 0 Z " fill="#403F3E" transform="translate(214.98046875,431.70703125)"/>
<path d="M0 0 C1.12365211 0.00067978 1.12365211 0.00067978 2.27000427 0.00137329 C3.05537064 -0.00198532 3.840737 -0.00534393 4.64990234 -0.00880432 C7.2597764 -0.01834397 9.8695865 -0.02025903 12.47947693 -0.02133179 C14.28690111 -0.0245426 16.09432503 -0.02790653 17.90174866 -0.03141785 C21.69654442 -0.03741689 25.49131738 -0.03925699 29.28611755 -0.03866577 C34.15436914 -0.03856418 39.02247477 -0.05220999 43.89069176 -0.06943798 C47.62583592 -0.08054493 51.36094468 -0.08258537 55.09610367 -0.08205605 C56.89108915 -0.08323838 58.68607548 -0.08767429 60.48104477 -0.09538841 C62.99022951 -0.10516077 65.4990959 -0.10232109 68.00828552 -0.09628296 C68.75333847 -0.10190247 69.49839142 -0.10752197 70.26602173 -0.11331177 C73.98853046 -0.09049177 75.58690027 0.02554419 78.76853943 2.14663696 C77.89353943 6.02163696 77.89353943 6.02163696 76.76853943 7.14663696 C74.21802469 7.24701427 71.69456764 7.28281184 69.14353943 7.27603149 C68.34520691 7.27778381 67.54687439 7.27953613 66.72434998 7.28134155 C64.07239133 7.28576064 61.42049881 7.28282189 58.76853943 7.27944946 C56.93390388 7.28012249 55.09926842 7.2810925 53.26463318 7.28234863 C49.41436415 7.28382568 45.56411827 7.28167082 41.71385193 7.27700806 C36.76697446 7.27131076 31.82015123 7.27458973 26.87327576 7.28058052 C23.08331388 7.28418594 19.29336497 7.28304763 15.50340271 7.28045273 C13.67885837 7.27978341 11.85431288 7.28061206 10.0297699 7.28293228 C7.48432782 7.2854585 4.93897484 7.28161866 2.39353943 7.27603149 C1.63194519 7.27805573 0.87035095 7.28007996 0.0856781 7.28216553 C-5.117198 7.26089954 -5.117198 7.26089954 -6.23146057 6.14663696 C-6.35646057 3.64663696 -6.35646057 3.64663696 -6.23146057 1.14663696 C-4.50730522 -0.57751839 -2.29941226 0.01445205 0 0 Z " fill="#17213E" transform="translate(235.23146057128906,237.85336303710938)"/>
<path d="M0 0 C1.2065625 0.0309375 1.2065625 0.0309375 2.4375 0.0625 C2.7675 1.0525 3.0975 2.0425 3.4375 3.0625 C4.62988281 3.03929687 5.82226562 3.01609375 7.05078125 2.9921875 C8.61718124 2.97342822 10.183588 2.95522819 11.75 2.9375 C12.53568359 2.92074219 13.32136719 2.90398437 14.13085938 2.88671875 C14.88818359 2.88027344 15.64550781 2.87382812 16.42578125 2.8671875 C17.12227783 2.85671387 17.81877441 2.84624023 18.53637695 2.83544922 C20.4375 3.0625 20.4375 3.0625 23.4375 5.0625 C24.31298828 6.90673828 24.31298828 6.90673828 25.0078125 9.1328125 C25.26433594 9.9475 25.52085937 10.7621875 25.78515625 11.6015625 C26.04167969 12.45492187 26.29820312 13.30828125 26.5625 14.1875 C26.82675781 15.01765625 27.09101563 15.8478125 27.36328125 16.703125 C28.9475197 21.83380588 29.9313252 26.71680032 30.4375 32.0625 C27.1375 33.0525 23.8375 34.0425 20.4375 35.0625 C21.38683899 38.41683109 22.33498835 41.75496505 23.4375 45.0625 C25.33361434 44.92036703 27.22938394 44.77363093 29.125 44.625 C30.18074219 44.54378906 31.23648438 44.46257812 32.32421875 44.37890625 C35.40224937 44.13545247 35.40224937 44.13545247 38.20703125 43.40234375 C38.94308594 43.29019531 39.67914063 43.17804688 40.4375 43.0625 C42.4375 45.0625 42.4375 45.0625 42.5625 47.6875 C42.52125 48.47125 42.48 49.255 42.4375 50.0625 C41.4475 50.5575 41.4475 50.5575 40.4375 51.0625 C40.40854024 54.18748063 40.39071517 57.3124269 40.375 60.4375 C40.36243164 61.77167969 40.36243164 61.77167969 40.34960938 63.1328125 C40.34638672 63.98359375 40.34316406 64.834375 40.33984375 65.7109375 C40.33460693 66.49645996 40.32937012 67.28198242 40.32397461 68.09130859 C40.31176047 70.14022668 40.31176047 70.14022668 41.4375 72.0625 C40.1175 72.0625 38.7975 72.0625 37.4375 72.0625 C37.37691406 70.80953125 37.31632812 69.5565625 37.25390625 68.265625 C37.16947744 66.61457276 37.08483061 64.96353165 37 63.3125 C36.96068359 62.4875 36.92136719 61.6625 36.88085938 60.8125 C36.83896484 60.01328125 36.79707031 59.2140625 36.75390625 58.390625 C36.69891968 57.29089355 36.69891968 57.29089355 36.64282227 56.16894531 C36.45638535 53.72076332 36.45638535 53.72076332 35.4375 50.0625 C28.5075 49.5675 28.5075 49.5675 21.4375 49.0625 C20.90640625 47.87011719 20.3753125 46.67773438 19.828125 45.44921875 C19.11515169 43.88255372 18.40157852 42.31616159 17.6875 40.75 C17.33945313 39.96431641 16.99140625 39.17863281 16.6328125 38.36914062 C14.71933544 34.20555629 13.35028908 31.63326343 9.4375 29.0625 C9.125 25.9375 9.125 25.9375 9.4375 23.0625 C10.4375 22.0625 10.4375 22.0625 12.9375 21.9375 C15.4375 22.0625 15.4375 22.0625 16.4375 23.0625 C16.57865161 25.73308851 16.47997107 28.38682238 16.4375 31.0625 C19.7375 30.4025 23.0375 29.7425 26.4375 29.0625 C26.025 28.03125 25.6125 27 25.1875 25.9375 C22.86282329 19.77543828 21.19227188 13.40461969 19.4375 7.0625 C16.79159986 7.03565321 14.14596904 7.01573643 11.5 7 C10.74525391 6.99162109 9.99050781 6.98324219 9.21289062 6.97460938 C7.28755687 6.96597559 5.36214419 7.01025667 3.4375 7.0625 C3.1075 7.3925 2.7775 7.7225 2.4375 8.0625 C-0.0625 8.1875 -0.0625 8.1875 -2.5625 8.0625 C-3.5625 7.0625 -3.5625 7.0625 -3.6875 4.0625 C-3.52180824 0.08589776 -3.52180824 0.08589776 0 0 Z " fill="#23293D" transform="translate(202.5625,148.9375)"/>
<path d="M0 0 C0.77251602 0.00359528 1.54503204 0.00719055 2.34095764 0.01089478 C3.55549622 0.01067574 3.55549622 0.01067574 4.79457092 0.01045227 C7.48380671 0.01115163 10.17297412 0.01894507 12.86219788 0.02676392 C14.72164878 0.02862802 16.58110018 0.03005196 18.44055176 0.03105164 C23.34458258 0.03487746 28.24858398 0.04470829 33.15260315 0.05575562 C38.15280255 0.06596836 43.15300669 0.07054896 48.1532135 0.07559204 C57.97158583 0.0863305 67.78993629 0.10340769 77.60829163 0.12442017 C77.65101263 1.79053922 77.64892995 3.45824901 77.60829163 5.12442017 C75.86536986 6.86734193 73.60205667 6.2442232 71.28004456 6.24884033 C70.51687927 6.24524506 69.75371399 6.24164978 68.96742249 6.23794556 C67.76751427 6.2381646 67.76751427 6.2381646 66.54336548 6.23838806 C63.88659498 6.23768872 61.2298937 6.22989535 58.57313538 6.22207642 C56.73610472 6.22021231 54.89907357 6.21878837 53.06204224 6.2177887 C48.217195 6.21396292 43.37237755 6.20413212 38.52754211 6.19308472 C33.58766584 6.18287188 28.64778478 6.17829135 23.707901 6.17324829 C14.00801809 6.16250991 4.30815733 6.14543277 -5.39170837 6.12442017 C-5.77389604 4.46827359 -6.10565939 2.79984992 -6.39170837 1.12442017 C-4.63731674 -0.62997146 -2.33673382 0.00459054 0 0 Z " fill="#0C1633" transform="translate(235.39170837402344,228.87557983398438)"/>
<path d="M0 0 C2.56314499 -0.08132187 5.12368418 -0.14064175 7.6875 -0.1875 C8.40873047 -0.21263672 9.12996094 -0.23777344 9.87304688 -0.26367188 C14.47795127 -0.32675276 17.34703463 0.15123223 21 3 C23.12738138 5.71424521 23.92909561 7.5239277 24.4375 10.9375 C23.75695185 15.70133702 21.6333122 18.73950906 17.84375 21.6640625 C14.23913306 23.35744024 11.07753342 23.33267828 7.1875 23.1875 C6.14819336 23.16719727 6.14819336 23.16719727 5.08789062 23.14648438 C3.39158735 23.11138845 1.69568864 23.05758943 0 23 C0.495 21.515 0.495 21.515 1 20 C1.66 20 2.32 20 3 20 C3 14.06 3 8.12 3 2 C2.01 1.67 1.02 1.34 0 1 C0 0.67 0 0.34 0 0 Z " fill="#383736" transform="translate(392,427)"/>
<path d="M0 0 C1.890625 0.87109375 1.890625 0.87109375 3.890625 3.87109375 C5.8493293 3.7303306 7.80758593 3.58332615 9.765625 3.43359375 C11.40144531 3.31177734 11.40144531 3.31177734 13.0703125 3.1875 C15.83791471 3.04107672 15.83791471 3.04107672 17.890625 1.87109375 C20.890625 1.62109375 20.890625 1.62109375 23.890625 1.87109375 C25.890625 4.87109375 25.890625 4.87109375 25.828125 7.43359375 C24.890625 9.87109375 24.890625 9.87109375 22.33203125 11.0234375 C21.52636719 11.30316406 20.72070312 11.58289063 19.890625 11.87109375 C19.78395508 12.84409424 19.67728516 13.81709473 19.56738281 14.81958008 C18.45505006 24.54027159 16.7554128 34.00721159 14.640625 43.55859375 C14.17527844 45.69826968 13.71241295 47.83847404 13.24952698 49.97868347 C12.93495478 51.43199789 12.61955664 52.88513378 12.30332947 54.33808899 C10.63166887 62.02529402 9.03898341 69.72830663 7.453125 77.43359375 C7.1943457 78.68809326 6.93556641 79.94259277 6.66894531 81.23510742 C6.07537328 84.11360607 5.48256266 86.99225865 4.890625 89.87109375 C3.900625 89.87109375 2.910625 89.87109375 1.890625 89.87109375 C2.28768548 80.16827777 4.44695225 70.84758679 6.52838135 61.40045166 C7.14752527 58.58976912 7.75809876 55.77733839 8.36669922 52.96435547 C10.08957892 45.01702794 11.8370337 37.07570799 13.6328125 29.14453125 C13.87225586 28.07750977 14.11169922 27.01048828 14.35839844 25.91113281 C14.78289217 24.02834858 15.21528296 22.1473195 15.65722656 20.26855469 C15.83995117 19.4593457 16.02267578 18.65013672 16.2109375 17.81640625 C16.36836426 17.14109863 16.52579102 16.46579102 16.68798828 15.77001953 C16.92405366 13.55783093 16.53627311 11.98814279 15.890625 9.87109375 C15.55729167 8.53776042 15.22395833 7.20442708 14.890625 5.87109375 C13.281875 6.36609375 13.281875 6.36609375 11.640625 6.87109375 C7.890625 7.87109375 7.890625 7.87109375 3.890625 7.87109375 C3.395625 7.35546875 2.900625 6.83984375 2.390625 6.30859375 C1.895625 5.83421875 1.400625 5.35984375 0.890625 4.87109375 C-2.47152035 5.2601023 -4.08566902 6.50486236 -6.359375 8.93359375 C-6.88015625 9.48144531 -7.4009375 10.02929688 -7.9375 10.59375 C-8.32421875 11.01527344 -8.7109375 11.43679687 -9.109375 11.87109375 C-12.984375 9.99609375 -12.984375 9.99609375 -14.109375 8.87109375 C-14.15001332 7.2049226 -14.152096 5.5372128 -14.109375 3.87109375 C-11.634375 4.86109375 -11.634375 4.86109375 -9.109375 5.87109375 C-8.65046875 5.42636719 -8.1915625 4.98164063 -7.71875 4.5234375 C-6.79835938 3.67458984 -6.79835938 3.67458984 -5.859375 2.80859375 C-5.25609375 2.24011719 -4.6528125 1.67164063 -4.03125 1.0859375 C-2.109375 -0.12890625 -2.109375 -0.12890625 0 0 Z " fill="#302913" transform="translate(286.109375,132.12890625)"/>
<path d="M0 0 C1.31476318 -0.00630432 2.62952637 -0.01260864 3.98413086 -0.019104 C5.42561985 -0.01552433 6.86710762 -0.0114224 8.30859375 -0.00683594 C9.78068099 -0.00818261 11.2527678 -0.01012317 12.72485352 -0.01263428 C15.81172923 -0.01558543 18.89848928 -0.01128825 21.98535156 -0.00195312 C25.94681504 0.0094415 29.90800753 0.00288197 33.86946106 -0.00909805 C36.90972952 -0.01631694 39.94993348 -0.01402861 42.99020386 -0.00884247 C44.45108065 -0.00750605 45.91196325 -0.00915344 47.37283325 -0.01380157 C49.4126169 -0.018867 51.45242101 -0.00978073 53.4921875 0 C55.23520142 0.00238678 55.23520142 0.00238678 57.01342773 0.00482178 C59.74609375 0.25878906 59.74609375 0.25878906 61.74609375 2.25878906 C61.74609375 3.24878906 61.74609375 4.23878906 61.74609375 5.25878906 C58.93393863 6.66486662 56.60565155 6.37829393 53.46044922 6.37231445 C52.81642151 6.37246048 52.1723938 6.37260651 51.5088501 6.37275696 C49.37695973 6.37205946 47.24515638 6.36427472 45.11328125 6.35644531 C43.63640389 6.35458055 42.15952591 6.35315692 40.68264771 6.35215759 C36.79297176 6.34833698 32.90333308 6.33851058 29.01367188 6.32745361 C25.04557804 6.3172297 21.0774782 6.31265787 17.109375 6.30761719 C9.32159759 6.29688791 1.53385089 6.27981695 -6.25390625 6.25878906 C-6.91390625 4.93878906 -7.57390625 3.61878906 -8.25390625 2.25878906 C-5.48835695 -0.50676024 -3.87270838 0.00530306 0 0 Z " fill="#1E2740" transform="translate(244.25390625,247.7412109375)"/>
<path d="M0 0 C3.63 0 7.26 0 11 0 C11.27714844 0.85464844 11.55429687 1.70929688 11.83984375 2.58984375 C12.20207031 3.69457031 12.56429687 4.79929687 12.9375 5.9375 C13.29714844 7.03964844 13.65679687 8.14179688 14.02734375 9.27734375 C14.73856668 11.88123475 14.73856668 11.88123475 16 13 C17.32 8.71 18.64 4.42 20 0 C23.63 0 27.26 0 31 0 C30.67 0.66 30.34 1.32 30 2 C29.34 2 28.68 2 28 2 C28 7.94 28 13.88 28 20 C28.99 20.33 29.98 20.66 31 21 C31 21.33 31 21.66 31 22 C27.37 22 23.74 22 20 22 C20.33 21.34 20.66 20.68 21 20 C21.66 20 22.32 20 23 20 C22.67 15.38 22.34 10.76 22 6 C20.35 10.95 18.7 15.9 17 21 C15.35 21.33 13.7 21.66 12 22 C10.35 17.05 8.7 12.1 7 7 C6.67 11.29 6.34 15.58 6 20 C6.99 20.33 7.98 20.66 9 21 C9 21.33 9 21.66 9 22 C6.03 22 3.06 22 0 22 C0.33 21.34 0.66 20.68 1 20 C1.66 20 2.32 20 3 20 C3 14.06 3 8.12 3 2 C2.01 1.67 1.02 1.34 0 1 C0 0.67 0 0.34 0 0 Z " fill="#3A3938" transform="translate(22,427)"/>
<path d="M0 0 C0.74958984 0.01353516 1.49917969 0.02707031 2.27148438 0.04101562 C4.11879767 0.07631461 5.96574066 0.13012083 7.8125 0.1875 C7.8125 1.1775 7.8125 2.1675 7.8125 3.1875 C6.8225 3.5175 5.8325 3.8475 4.8125 4.1875 C4.68875 4.97125 4.565 5.755 4.4375 6.5625 C3.8125 9.1875 3.8125 9.1875 1.8125 11.1875 C-0.3515625 11.3828125 -0.3515625 11.3828125 -2.8125 11.3125 C-3.62976563 11.29445313 -4.44703125 11.27640625 -5.2890625 11.2578125 C-5.91554688 11.23460937 -6.54203125 11.21140625 -7.1875 11.1875 C-7.1875 12.1775 -7.1875 13.1675 -7.1875 14.1875 C-6.42824219 14.16429687 -5.66898437 14.14109375 -4.88671875 14.1171875 C-3.89285156 14.09914063 -2.89898437 14.08109375 -1.875 14.0625 C-0.88886719 14.03929687 0.09726562 14.01609375 1.11328125 13.9921875 C3.8125 14.1875 3.8125 14.1875 6.8125 16.1875 C7.3125 18.5625 7.3125 18.5625 6.8125 21.1875 C5.0625 23.5 5.0625 23.5 1.8125 25.1875 C-2.22110908 25.62254971 -6.15935458 25.69919942 -10.1875 25.1875 C-10.8475 24.5275 -11.5075 23.8675 -12.1875 23.1875 C-12.1640625 20.7265625 -12.1640625 20.7265625 -11.8125 17.8125 C-11.33506318 13.69321956 -11.07113773 9.77778442 -11.375 5.625 C-11.1875 3.1875 -11.1875 3.1875 -10.1875 1.546875 C-7.03126918 -0.59837563 -3.6726416 -0.12509434 0 0 Z " fill="#373636" transform="translate(371.1875,431.8125)"/>
<path d="M0 0 C2.95857409 -0.05379226 5.91617721 -0.09357093 8.875 -0.125 C9.71675781 -0.14175781 10.55851562 -0.15851563 11.42578125 -0.17578125 C12.23144531 -0.18222656 13.03710938 -0.18867188 13.8671875 -0.1953125 C14.98262939 -0.21102295 14.98262939 -0.21102295 16.12060547 -0.22705078 C18 0 18 0 20 2 C20.34490322 6.05261287 20.30163882 7.54754176 18 11 C17.34 11 16.68 11 16 11 C16.3609375 11.48210937 16.721875 11.96421875 17.09375 12.4609375 C17.5578125 13.09257812 18.021875 13.72421875 18.5 14.375 C18.9640625 15.00148438 19.428125 15.62796875 19.90625 16.2734375 C21 18 21 18 21 20 C21.99 20.33 22.98 20.66 24 21 C24 21.33 24 21.66 24 22 C18.80980696 22.70375499 18.80980696 22.70375499 16 22 C14.25997827 20.07000071 13.17596025 18.16352959 12.0078125 15.84765625 C11.13528391 13.82969842 11.13528391 13.82969842 9 13 C9.48484276 17.64586892 9.48484276 17.64586892 11 22 C7.37 22 3.74 22 0 22 C0.33 21.34 0.66 20.68 1 20 C1.66 20 2.32 20 3 20 C3 14.06 3 8.12 3 2 C2.01 1.67 1.02 1.34 0 1 C0 0.67 0 0.34 0 0 Z " fill="#444342" transform="translate(419,427)"/>
<path d="M0 0 C2.625 0.375 2.625 0.375 5 1 C5.625 3.3125 5.625 3.3125 6 6 C5.34 6.99 4.68 7.98 4 9 C3.64332199 12.32836471 3.64332199 12.32836471 3.6875 16 C3.67074219 17.2375 3.65398437 18.475 3.63671875 19.75 C4.02517437 23.22521583 4.40386647 23.88155504 7 26 C6.74853421 28.13745922 6.54074221 29.45925779 5 31 C3.33382885 31.04063832 1.66611905 31.042721 0 31 C-0.2475 29.7315625 -0.2475 29.7315625 -0.5 28.4375 C-2.51287455 23.82466249 -5.64818617 20.57003345 -10 18 C-14.83363909 18 -18.52332394 22.36616225 -21.83300781 25.49121094 C-27.38016491 31.41807387 -27.37933277 37.69365309 -27.203125 45.484375 C-27.13609375 46.64453125 -27.0690625 47.8046875 -27 49 C-27.33 49 -27.66 49 -28 49 C-28.06058594 47.79601562 -28.12117187 46.59203125 -28.18359375 45.3515625 C-28.26799732 43.77602923 -28.35264541 42.20050904 -28.4375 40.625 C-28.49647461 39.43390625 -28.49647461 39.43390625 -28.55664062 38.21875 C-28.68893404 33.97398779 -28.68893404 33.97398779 -30 30 C-24.65611545 23.66519646 -18.91166188 17.80460966 -13 12 C-9.7173068 13.49076434 -7.06922559 15.38620321 -4.25 17.625 C-3.45078125 18.25664063 -2.6515625 18.88828125 -1.828125 19.5390625 C-1.22484375 20.02117187 -0.6215625 20.50328125 0 21 C-0.14029419 18.8537974 -0.28738164 16.70803782 -0.4375 14.5625 C-0.51871094 13.36753906 -0.59992188 12.17257813 -0.68359375 10.94140625 C-0.67656114 8.11429756 -0.67656114 8.11429756 -2 7 C-2.1875 4.5625 -2.1875 4.5625 -2 2 C-1.34 1.34 -0.68 0.68 0 0 Z " fill="#202639" transform="translate(236,60)"/>
<path d="M0 0 C3.63 0 7.26 0 11 0 C11 4.95 11 9.9 11 15 C11.99 15 12.98 15 14 15 C14 15.99 14 16.98 14 18 C9.38 18 4.76 18 0 18 C-0.33 18.99 -0.66 19.98 -1 21 C-1.66 19.02 -2.32 17.04 -3 15 C-6.63 14.67 -10.26 14.34 -14 14 C-14 13.01 -14 12.02 -14 11 C-9.05 10.01 -9.05 10.01 -4 9 C-3.67 7.02 -3.34 5.04 -3 3 C-2.01 3 -1.02 3 0 3 C0 2.01 0 1.02 0 0 Z " fill="#E9E8E8" transform="translate(224,432)"/>
<path d="M0 0 C3.33333333 0 6.66666667 0 10 0 C11.134375 -0.061875 12.26875 -0.12375 13.4375 -0.1875 C17 0 17 0 18.68359375 1.13671875 C20.5252448 3.74344738 20.47765529 5.83596628 20.625 9 C20.79501343 12.30311813 20.95091429 14.85274287 22 18 C18.7 18 15.4 18 12 18 C12.33 17.01 12.66 16.02 13 15 C13.0685495 13.10529184 13.08480372 11.2083166 13.0625 9.3125 C13.05347656 8.31863281 13.04445313 7.32476562 13.03515625 6.30078125 C13.02355469 5.54152344 13.01195312 4.78226562 13 4 C11.68 4 10.36 4 9 4 C8.97294271 5.77074917 8.95357805 7.54161711 8.9375 9.3125 C8.92589844 10.29863281 8.91429687 11.28476562 8.90234375 12.30078125 C8.87670138 15.09963849 8.87670138 15.09963849 10 18 C6.7 18 3.4 18 0 18 C0.495 16.515 0.495 16.515 1 15 C1.66 15 2.32 15 3 15 C3 11.04 3 7.08 3 3 C2.01 2.67 1.02 2.34 0 2 C0 1.34 0 0.68 0 0 Z " fill="#3B3A38" transform="translate(335,432)"/>
<path d="M0 0 C1.77049689 -0.05410687 3.54146849 -0.09284119 5.3125 -0.125 C6.29863281 -0.14820313 7.28476563 -0.17140625 8.30078125 -0.1953125 C11 0 11 0 14 2 C14.29296875 5.0390625 14.29296875 5.0390625 14.1875 8.625 C14.16042969 9.81351562 14.13335937 11.00203125 14.10546875 12.2265625 C14.07066406 13.14179688 14.03585938 14.05703125 14 15 C14.99 15 15.98 15 17 15 C17 15.66 17 16.32 17 17 C10.25 18.125 10.25 18.125 8 17 C7.34 17.33 6.68 17.66 6 18 C3 18.1875 3 18.1875 0 18 C-2 16 -2 16 -2.3125 13.0625 C-2 10 -2 10 -1 8.125 C2.25313684 6.29511053 5.31390109 6.81871645 9 7 C8.67 5.68 8.34 4.36 8 3 C4.97580475 3.58803797 1.98241547 4.22678118 -1 5 C-0.67 3.35 -0.34 1.7 0 0 Z " fill="#363433" transform="translate(59,432)"/>
<path d="M0 0 C2.5 1.0625 2.5 1.0625 4 3 C4.25 6.6875 4.25 6.6875 4 10 C0.37 10 -3.26 10 -7 10 C-6.67 10.99 -6.34 11.98 -6 13 C-2.7 13.33 0.6 13.66 4 14 C4 14.66 4 15.32 4 16 C0.85575775 18.0961615 -2.26966273 18.54676179 -6.02734375 18.44140625 C-8 18 -8 18 -11 15.4375 C-13.32543335 11.44066142 -13.82563373 9.54098553 -13 5 C-9.26630165 -0.48386945 -6.18841774 -0.78583082 0 0 Z " fill="#454443" transform="translate(125,432)"/>
<path d="M0 0 C2.31 0 4.62 0 7 0 C7 0.66 7 1.32 7 2 C7.66 2 8.32 2 9 2 C9 1.34 9 0.68 9 0 C15.0546875 -0.1953125 15.0546875 -0.1953125 17 0 C19.75544831 2.75544831 19.36279855 4.65893377 19.5625 8.5 C19.66407271 12.90933762 19.66407271 12.90933762 21 17 C18.03 17 15.06 17 12 17 C12.33 16.34 12.66 15.68 13 15 C13.07033769 13.12620395 13.0843022 11.24998898 13.0625 9.375 C13.04896484 7.87066406 13.04896484 7.87066406 13.03515625 6.3359375 C13.02355469 5.56507813 13.01195312 4.79421875 13 4 C11.68 4 10.36 4 9 4 C9 8.29 9 12.58 9 17 C6.03 17 3.06 17 0 17 C0.33 16.34 0.66 15.68 1 15 C1.09672832 13.02275939 1.12979903 11.0420994 1.125 9.0625 C1.12757813 8.00160156 1.13015625 6.94070313 1.1328125 5.84765625 C1.12569346 2.92426943 1.12569346 2.92426943 0 0 Z " fill="#424140" transform="translate(181,432)"/>
<path d="M0 0 C1.17369141 -0.00386719 1.17369141 -0.00386719 2.37109375 -0.0078125 C4.5625 0.125 4.5625 0.125 7.5625 1.125 C7.5625 3.105 7.5625 5.085 7.5625 7.125 C6.5725 7.125 5.5825 7.125 4.5625 7.125 C4.2325 6.135 3.9025 5.145 3.5625 4.125 C-0.52537015 3.81567067 -0.52537015 3.81567067 -4.3125 5.125 C-6.12067927 8.33954092 -5.9441044 11.5787692 -5.4375 15.125 C-4.57325439 17.72369315 -4.57325439 17.72369315 -2.4375 19.125 C1.4279622 19.47640565 4.85817073 19.31038537 8.5625 18.125 C8.5625 19.115 8.5625 20.105 8.5625 21.125 C3.54497224 24.13551666 0.2747265 24.8503621 -5.4375 24.125 C-9.98783624 20.56386729 -12.08613966 17.45276224 -12.9375 11.8125 C-12.27148123 6.90061156 -10.02605833 4.41606127 -6.4375 1.125 C-4.08479407 -0.05135297 -2.616748 -0.00859359 0 0 Z " fill="#3D3C3B" transform="translate(456.4375,425.875)"/>
<path d="M0 0 C2.5625 1.6875 2.5625 1.6875 4 4 C4 5.65 4 7.3 4 9 C0.04 9 -3.92 9 -8 9 C-7.34 10.32 -6.68 11.64 -6 13 C-2.7 13 0.6 13 4 13 C4 13.99 4 14.98 4 16 C-0.13219551 18.00348873 -3.42635406 18.57170574 -8 18 C-10.9375 16.0625 -10.9375 16.0625 -13 13 C-13.87209775 8.70071108 -13.71988642 5.28327579 -11.5625 1.4375 C-7.74166113 -0.70589742 -4.27742478 -0.7770001 0 0 Z " fill="#343332" transform="translate(297,432)"/>
<path d="M0 0 C2.12890625 0.421875 2.12890625 0.421875 4.69140625 2.109375 C6.12890625 4.421875 6.12890625 4.421875 6.12890625 9.421875 C2.16890625 9.421875 -1.79109375 9.421875 -5.87109375 9.421875 C-5.21109375 10.741875 -4.55109375 12.061875 -3.87109375 13.421875 C-0.57109375 13.421875 2.72890625 13.421875 6.12890625 13.421875 C5.46890625 14.741875 4.80890625 16.061875 4.12890625 17.421875 C0.41225844 18.6607576 -3.01443082 19.08922512 -6.87109375 18.421875 C-9.50546165 16.31438068 -10.60113831 14.81664479 -11.24609375 11.484375 C-11.46381227 7.89201948 -11.00362914 5.69847061 -9.43359375 2.421875 C-6.16809721 -0.12680523 -4.05958515 -0.24076617 0 0 Z " fill="#312F2E" transform="translate(274.87109375,431.578125)"/>
<path d="M0 0 C2.5 1.6875 2.5 1.6875 4 4 C4 5.65 4 7.3 4 9 C0.04 9 -3.92 9 -8 9 C-7.34 10.32 -6.68 11.64 -6 13 C-2.7 13 0.6 13 4 13 C4 13.99 4 14.98 4 16 C-0.0016041 18.66773607 -3.29431148 18.71478813 -8 18 C-10.50160818 16.12379387 -11.61945652 14.76108697 -13 12 C-13.48602588 7.70677141 -13.46241608 5.67917361 -11 2.0625 C-6.84919686 -0.79117716 -4.9698922 -0.7099846 0 0 Z " fill="#3D3C3B" transform="translate(174,432)"/>
<path d="M0 0 C3 0 6 0 9 0 C9.928125 -0.03480469 9.928125 -0.03480469 10.875 -0.0703125 C11.57625 -0.08835937 12.2775 -0.10640625 13 -0.125 C13.70125 -0.14820313 14.4025 -0.17140625 15.125 -0.1953125 C17 0 17 0 19 2 C19.37890625 4.96875 19.37890625 4.96875 19.5625 8.5 C19.66407271 12.90933762 19.66407271 12.90933762 21 17 C18.03 17 15.06 17 12 17 C12 16.34 12 15.68 12 15 C12.66 15 13.32 15 14 15 C13.67 11.04 13.34 7.08 13 3 C11.35 3.33 9.7 3.66 8 4 C7.97303635 5.79158489 7.95362083 7.58328473 7.9375 9.375 C7.92589844 10.37273437 7.91429687 11.37046875 7.90234375 12.3984375 C7.81993398 14.98432453 7.81993398 14.98432453 9 17 C6.03 17 3.06 17 0 17 C0.33 16.34 0.66 15.68 1 15 C1.09672832 13.02275939 1.12979903 11.0420994 1.125 9.0625 C1.12757813 8.00160156 1.13015625 6.94070313 1.1328125 5.84765625 C1.12569346 2.92426943 1.12569346 2.92426943 0 0 Z " fill="#363534" transform="translate(240,432)"/>
<path d="M0 0 C1.890625 0.87109375 1.890625 0.87109375 3.890625 3.87109375 C5.8493293 3.7303306 7.80758593 3.58332615 9.765625 3.43359375 C11.40144531 3.31177734 11.40144531 3.31177734 13.0703125 3.1875 C15.83791471 3.04107672 15.83791471 3.04107672 17.890625 1.87109375 C20.890625 1.62109375 20.890625 1.62109375 23.890625 1.87109375 C25.890625 4.87109375 25.890625 4.87109375 25.828125 7.43359375 C25.51875 8.23796875 25.209375 9.04234375 24.890625 9.87109375 C23.22395833 10.53776042 21.55729167 11.20442708 19.890625 11.87109375 C18.99676336 14.41884681 18.99676336 14.41884681 18.890625 16.87109375 C18.560625 16.87109375 18.230625 16.87109375 17.890625 16.87109375 C15.74776786 9.44252232 15.74776786 9.44252232 14.890625 5.87109375 C13.281875 6.36609375 13.281875 6.36609375 11.640625 6.87109375 C7.890625 7.87109375 7.890625 7.87109375 3.890625 7.87109375 C3.395625 7.35546875 2.900625 6.83984375 2.390625 6.30859375 C1.895625 5.83421875 1.400625 5.35984375 0.890625 4.87109375 C-2.47152035 5.2601023 -4.08566902 6.50486236 -6.359375 8.93359375 C-6.88015625 9.48144531 -7.4009375 10.02929688 -7.9375 10.59375 C-8.32421875 11.01527344 -8.7109375 11.43679687 -9.109375 11.87109375 C-12.984375 9.99609375 -12.984375 9.99609375 -14.109375 8.87109375 C-14.15001332 7.2049226 -14.152096 5.5372128 -14.109375 3.87109375 C-11.634375 4.86109375 -11.634375 4.86109375 -9.109375 5.87109375 C-8.65046875 5.42636719 -8.1915625 4.98164063 -7.71875 4.5234375 C-6.79835938 3.67458984 -6.79835938 3.67458984 -5.859375 2.80859375 C-5.25609375 2.24011719 -4.6528125 1.67164063 -4.03125 1.0859375 C-2.109375 -0.12890625 -2.109375 -0.12890625 0 0 Z " fill="#362E15" transform="translate(286.109375,132.12890625)"/>
<path d="M0 0 C25.08 0 50.16 0 76 0 C76 0.33 76 0.66 76 1 C74.35 1 72.7 1 71 1 C71 1.66 71 2.32 71 3 C50.21 3 29.42 3 8 3 C8 2.67 8 2.34 8 2 C5.36 1.67 2.72 1.34 0 1 C0 0.67 0 0.34 0 0 Z " fill="#F4F4F5" transform="translate(232,245)"/>
<path d="M0 0 C6.27 0 12.54 0 19 0 C19 14.85 19 29.7 19 45 C11.41 45 3.82 45 -4 45 C-4 38.73 -4 32.46 -4 26 C-3.67 26 -3.34 26 -3 26 C-3 31.94 -3 37.88 -3 44 C-2.01 43.34 -1.02 42.68 0 42 C4.95 42 9.9 42 15 42 C15 29.46 15 16.92 15 4 C15.33 4 15.66 4 16 4 C16.495 22.315 16.495 22.315 17 41 C17.33 27.8 17.66 14.6 18 1 C12.06 1 6.12 1 0 1 C0 0.67 0 0.34 0 0 Z " fill="#4B4F60" transform="translate(243,177)"/>
<path d="M0 0 C1.49080078 0.02707031 1.49080078 0.02707031 3.01171875 0.0546875 C3.77097656 0.07789063 4.53023437 0.10109375 5.3125 0.125 C5.3125 1.775 5.3125 3.425 5.3125 5.125 C4.3225 5.125 3.3325 5.125 2.3125 5.125 C2.3125 4.465 2.3125 3.805 2.3125 3.125 C-0.6575 2.63 -0.6575 2.63 -3.6875 2.125 C-3.6875 3.445 -3.6875 4.765 -3.6875 6.125 C-1.66927083 6.58072917 0.34895833 7.03645833 2.3671875 7.4921875 C4.3125 8.125 4.3125 8.125 6.3125 10.125 C6.15593569 13.178004 5.82108916 14.64166809 3.58203125 16.76953125 C0.86662913 18.39129465 -0.73844343 18.46766046 -3.875 18.375 C-5.19564453 18.35179687 -5.19564453 18.35179687 -6.54296875 18.328125 C-8.6875 18.125 -8.6875 18.125 -9.6875 17.125 C-9.72813832 15.45882885 -9.730221 13.79111905 -9.6875 12.125 C-8.6975 12.125 -7.7075 12.125 -6.6875 12.125 C-6.3575 12.785 -6.0275 13.445 -5.6875 14.125 C-3.36593403 14.53229228 -1.0306213 14.86938677 1.3125 15.125 C1.3125 14.135 1.3125 13.145 1.3125 12.125 C0.67441406 11.92003906 0.03632812 11.71507812 -0.62109375 11.50390625 C-1.44738281 11.23449219 -2.27367188 10.96507812 -3.125 10.6875 C-3.94871094 10.42066406 -4.77242188 10.15382813 -5.62109375 9.87890625 C-7.6875 9.125 -7.6875 9.125 -8.6875 8.125 C-8.9375 5.1875 -8.9375 5.1875 -8.6875 2.125 C-5.26655758 -0.15562828 -4.00562778 -0.09425007 0 0 Z " fill="#383736" transform="translate(87.6875,431.875)"/>
<path d="M0 0 C2.31 0 4.62 0 7 0 C7.33 0.66 7.66 1.32 8 2 C8.66 1.34 9.32 0.68 10 0 C13.125 -0.125 13.125 -0.125 16 0 C16 1.98 16 3.96 16 6 C13.23723823 5.47731534 10.6739124 4.89130413 8 4 C8 7.63 8 11.26 8 15 C8.99 15.33 9.98 15.66 11 16 C11 16.66 11 17.32 11 18 C7.37 18 3.74 18 0 18 C0.495 16.515 0.495 16.515 1 15 C1.09435979 13.00179272 1.12990301 11.00042797 1.125 9 C1.12757813 7.948125 1.13015625 6.89625 1.1328125 5.8125 C1.12353635 2.91873122 1.12353635 2.91873122 0 0 Z " fill="#484746" transform="translate(304,432)"/>
<path d="M0 0 C6 1 6 1 8.375 2.5625 C10.65423024 5.98134535 10.76222025 9.07223238 10 13 C8.375 16 8.375 16 6 18 C4.02 18 2.04 18 0 18 C0 12.06 0 6.12 0 0 Z " fill="#EBEBEA" transform="translate(400,429)"/>
<path d="M0 0 C0.66 0 1.32 0 2 0 C2.33 4.62 2.66 9.24 3 14 C8.94 14.33 14.88 14.66 21 15 C21 29.19 21 43.38 21 58 C18.46239173 54.19358759 18.65022525 51.03139645 18.5859375 46.61328125 C18.56657135 45.79627243 18.5472052 44.97926361 18.5272522 44.13749695 C18.46749648 41.52927066 18.42108742 38.92100014 18.375 36.3125 C18.3368165 34.5436006 18.29776454 32.77471972 18.2578125 31.00585938 C18.16016393 26.67066955 18.08056512 22.33567578 18 18 C12.06 17.67 6.12 17.34 0 17 C0 11.39 0 5.78 0 0 Z " fill="#070D25" transform="translate(240,163)"/>
<path d="M0 0 C5.33333333 0 10.66666667 0 16 0 C16 1.98 16 3.96 16 6 C14.68 6 13.36 6 12 6 C12 5.34 12 4.68 12 4 C11.01 4.33 10.02 4.66 9 5 C9 8.3 9 11.6 9 15 C9.66 15.33 10.32 15.66 11 16 C11 16.66 11 17.32 11 18 C7.37 18 3.74 18 0 18 C0.495 16.515 0.495 16.515 1 15 C1.66 15 2.32 15 3 15 C3 11.04 3 7.08 3 3 C2.01 2.67 1.02 2.34 0 2 C0 1.34 0 0.68 0 0 Z " fill="#444241" transform="translate(132,432)"/>
<path d="M0 0 C1.65 0 3.3 0 5 0 C5 1.32 5 2.64 5 4 C6.98 4 8.96 4 11 4 C11 4.99 11 5.98 11 7 C9.02 7 7.04 7 5 7 C5.33 10.63 5.66 14.26 6 18 C7.65 18.33 9.3 18.66 11 19 C11 19.66 11 20.32 11 21 C9.54364629 21.22174933 8.08477044 21.42698698 6.625 21.625 C5.40683594 21.79902344 5.40683594 21.79902344 4.1640625 21.9765625 C3.44992188 21.98429687 2.73578125 21.99203125 2 22 C0 20 0 20 -0.1953125 16.9609375 C-0.16050781 15.18589844 -0.16050781 15.18589844 -0.125 13.375 C-0.10695313 12.18648438 -0.08890625 10.99796875 -0.0703125 9.7734375 C-0.04710938 8.85820312 -0.02390625 7.94296875 0 7 C-0.99 7 -1.98 7 -3 7 C-3 6.01 -3 5.02 -3 4 C-2.01 4 -1.02 4 0 4 C0 2.68 0 1.36 0 0 Z " fill="#383837" transform="translate(99,428)"/>
<path d="M0 0 C2.625 0.375 2.625 0.375 5 1 C5.625 3.375 5.625 3.375 6 6 C5.34 6.66 4.68 7.32 4 8 C3.67043065 9.97760261 3.67043065 9.97760261 3.68115234 12.26611328 C3.66128265 13.14687531 3.64141296 14.02763733 3.62094116 14.93508911 C3.60938995 15.88721283 3.59783875 16.83933655 3.5859375 17.8203125 C3.56657135 18.79410858 3.5472052 19.76790466 3.5272522 20.77120972 C3.46735442 23.88905003 3.42103029 27.00692706 3.375 30.125 C3.33682961 32.23569341 3.29777844 34.34637108 3.2578125 36.45703125 C3.16164473 41.63788144 3.07662736 46.81882597 3 52 C2.01 52 1.02 52 0 52 C0.01047363 50.70787598 0.02094727 49.41575195 0.03173828 48.08447266 C0.06786719 43.30243691 0.09087451 38.52041327 0.10986328 33.73828125 C0.11993712 31.66632053 0.13359666 29.59437407 0.15087891 27.52246094 C0.17506664 24.54879236 0.18646908 21.5753113 0.1953125 18.6015625 C0.20563507 17.67131256 0.21595764 16.74106262 0.22659302 15.78262329 C0.22674408 14.92188202 0.22689514 14.06114075 0.22705078 13.17431641 C0.231492 12.41486725 0.23593323 11.65541809 0.24050903 10.87295532 C0.16250155 8.75497701 0.16250155 8.75497701 -2 7 C-2.25 4.5 -2.25 4.5 -2 2 C-1.34 1.34 -0.68 0.68 0 0 Z " fill="#070F26" transform="translate(258,55)"/>
<path d="M0 0 C4.29 0 8.58 0 13 0 C13 0.66 13 1.32 13 2 C11.35 2 9.7 2 8 2 C8.103125 3.27875 8.20625 4.5575 8.3125 5.875 C8.39951172 6.95394531 8.39951172 6.95394531 8.48828125 8.0546875 C8.87393036 10.39519216 8.87393036 10.39519216 12 12 C10.68 12 9.36 12 8 12 C8 14.64 8 17.28 8 20 C8.99 20.33 9.98 20.66 11 21 C11 21.33 11 21.66 11 22 C7.37 22 3.74 22 0 22 C0.33 21.34 0.66 20.68 1 20 C1.66 20 2.32 20 3 20 C3 14.06 3 8.12 3 2 C2.01 1.67 1.02 1.34 0 1 C0 0.67 0 0.34 0 0 Z " fill="#2C2A2A" transform="translate(419,427)"/>
<path d="M0 0 C0.33 0 0.66 0 1 0 C1 14.85 1 29.7 1 45 C-3.99922389 44.28582516 -7.40514396 43.6721054 -11.9375 41.9375 C-12.89527344 41.57527344 -13.85304687 41.21304688 -14.83984375 40.83984375 C-15.55269531 40.56269531 -16.26554688 40.28554687 -17 40 C-16.67 39.01 -16.34 38.02 -16 37 C-14.58318366 37.31182069 -13.16655349 37.62448737 -11.75 37.9375 C-10.96109375 38.11152344 -10.1721875 38.28554687 -9.359375 38.46484375 C-7.23271327 38.9472157 -5.11557202 39.47110699 -3 40 C-3 27.13 -3 14.26 -3 1 C-2.67 1 -2.34 1 -2 1 C-1.97532668 6.80240568 -1.95715276 12.60478098 -1.94506836 18.40722656 C-1.9400319 20.38216687 -1.93320249 22.35710343 -1.92456055 24.33203125 C-1.91246492 27.16667605 -1.9067649 30.00127166 -1.90234375 32.8359375 C-1.89718246 33.72243988 -1.89202118 34.60894226 -1.88670349 35.52230835 C-1.88612829 41.77225659 -1.88612829 41.77225659 -3 44 C-2.01 44 -1.02 44 0 44 C0 29.48 0 14.96 0 0 Z " fill="#5D616F" transform="translate(261,63)"/>
<path d="M0 0 C1.58294782 -0.05437607 3.16644256 -0.09296271 4.75 -0.125 C5.63171875 -0.14820313 6.5134375 -0.17140625 7.421875 -0.1953125 C10.1135858 0.00860498 11.69904974 0.63448279 14 2 C12.02 2 10.04 2 8 2 C8 7.94 8 13.88 8 20 C9.98 20 11.96 20 14 20 C10.78817851 21.90608098 8.46117397 22.22266247 4.75 22.125 C3.85796875 22.10695313 2.9659375 22.08890625 2.046875 22.0703125 C1.37140625 22.04710937 0.6959375 22.02390625 0 22 C0.33 21.34 0.66 20.68 1 20 C1.66 20 2.32 20 3 20 C3 14.06 3 8.12 3 2 C2.01 1.67 1.02 1.34 0 1 C0 0.67 0 0.34 0 0 Z " fill="#2D2C2B" transform="translate(392,427)"/>
<path d="M0 0 C3.3 0 6.6 0 10 0 C9.67 0.66 9.34 1.32 9 2 C8.34 2 7.68 2 7 2 C7 7.94 7 13.88 7 20 C7.99 20.33 8.98 20.66 10 21 C10 21.33 10 21.66 10 22 C6.37 22 2.74 22 -1 22 C-0.67 21.34 -0.34 20.68 0 20 C0.66 20 1.32 20 2 20 C1.67 15.05 1.34 10.1 1 5 C0.67 5 0.34 5 0 5 C0 3.35 0 1.7 0 0 Z " fill="#302E2D" transform="translate(43,427)"/>
<path d="M0 0 C3.76588717 0.41498081 5.52071108 2.16890906 8.109375 4.81640625 C8.86347656 5.58017578 9.61757813 6.34394531 10.39453125 7.13085938 C11.17183594 7.93330078 11.94914062 8.73574219 12.75 9.5625 C13.54277344 10.36880859 14.33554687 11.17511719 15.15234375 12.00585938 C17.10847046 13.99733778 19.05725719 15.99547721 21 18 C20.67 18.99 20.34 19.98 20 21 C17.8125 20.875 17.8125 20.875 15 20 C13.83230805 18.63213228 12.67453294 17.25295242 11.59765625 15.8125 C8.86552464 12.71296683 5.44531357 10.44047091 2.109375 8.02734375 C-0.33200156 5.68090961 -0.79713219 4.34168365 -1 1 C-0.67 0.67 -0.34 0.34 0 0 Z " fill="#F4CA67" transform="translate(337,177)"/>
<path d="M0 0 C0.58048096 0.23154785 1.16096191 0.4630957 1.7590332 0.70166016 C1.4465332 2.63916016 1.4465332 2.63916016 0.7590332 4.70166016 C-0.2309668 5.03166016 -1.2209668 5.36166016 -2.2409668 5.70166016 C-2.92845108 7.02437992 -3.59315775 8.35906354 -4.2409668 9.70166016 C-5.8269043 11.22900391 -5.8269043 11.22900391 -7.6159668 12.63916016 C-9.97224121 14.55637723 -11.55907134 16.11974041 -13.4284668 18.57666016 C-14.0265918 19.27791016 -14.6247168 19.97916016 -15.2409668 20.70166016 C-16.5609668 20.70166016 -17.8809668 20.70166016 -19.2409668 20.70166016 C-18.45356952 14.46612367 -14.74340307 11.57741978 -10.4284668 7.32666016 C-9.70336914 6.57771484 -8.97827148 5.82876953 -8.23120117 5.05712891 C-7.52672852 4.35458984 -6.82225586 3.65205078 -6.09643555 2.92822266 C-5.13193481 1.96263428 -5.13193481 1.96263428 -4.14794922 0.97753906 C-2.2409668 -0.29833984 -2.2409668 -0.29833984 0 0 Z " fill="#F4CB69" transform="translate(199.240966796875,177.29833984375)"/>
<path d="M0 0 C-0.23599136 3.72192087 -0.9639946 4.96208811 -3.58203125 7.71875 C-4.6488446 8.65733424 -5.72608349 9.58417782 -6.8125 10.5 C-10.61771446 13.77734997 -13.96992107 16.95011242 -17 21 C-18.32 20.67 -19.64 20.34 -21 20 C-20.11442014 14.52052221 -15.97827658 11.50429491 -12.1875 7.75 C-11.46240234 7.00492188 -10.73730469 6.25984375 -9.99023438 5.4921875 C-9.28576172 4.78835937 -8.58128906 4.08453125 -7.85546875 3.359375 C-7.21246826 2.71452148 -6.56946777 2.06966797 -5.90698242 1.40527344 C-4 0 -4 0 0 0 Z " fill="#F3C962" transform="translate(352,44)"/>
<path d="M0 0 C0 9.24 0 18.48 0 28 C-0.33 28 -0.66 28 -1 28 C-1.495 21.565 -1.495 21.565 -2 15 C-2.33 18.96 -2.66 22.92 -3 27 C-3.33 27 -3.66 27 -4 27 C-4 19.08 -4 11.16 -4 3 C-12.58 3 -21.16 3 -30 3 C-30 2.67 -30 2.34 -30 2 C-26.87588408 1.65802981 -23.75060292 1.32807747 -20.625 1 C-19.75488281 0.90460938 -18.88476562 0.80921875 -17.98828125 0.7109375 C-16.68310547 0.57558594 -16.68310547 0.57558594 -15.3515625 0.4375 C-14.17327881 0.31181641 -14.17327881 0.31181641 -12.97119141 0.18359375 C-8.65525948 -0.08309325 -4.32416354 0 0 0 Z " fill="#3A3F52" transform="translate(262,127)"/>
<path d="M0 0 C2.97 0 5.94 0 9 0 C9.06058594 1.05960937 9.12117187 2.11921875 9.18359375 3.2109375 C9.26800127 4.59897221 9.35264917 5.98699232 9.4375 7.375 C9.47681641 8.07367188 9.51613281 8.77234375 9.55664062 9.4921875 C9.74280134 13.37360492 9.74280134 13.37360492 11 17 C7.37 17 3.74 17 0 17 C0.33 16.34 0.66 15.68 1 15 C1.66 15 2.32 15 3 15 C3 11.04 3 7.08 3 3 C2.01 2.67 1.02 2.34 0 2 C0 1.34 0 0.68 0 0 Z " fill="#494847" transform="translate(226,432)"/>
<path d="M0 0 C4.55555556 0.55555556 4.55555556 0.55555556 6 2 C6.04063832 3.66617115 6.042721 5.33388095 6 7 C5.01 7.495 5.01 7.495 4 8 C3.97104024 11.12498063 3.95321517 14.2499269 3.9375 17.375 C3.92912109 18.26445312 3.92074219 19.15390625 3.91210938 20.0703125 C3.90888672 20.92109375 3.90566406 21.771875 3.90234375 22.6484375 C3.89710693 23.43395996 3.89187012 24.21948242 3.88647461 25.02880859 C3.87426047 27.07772668 3.87426047 27.07772668 5 29 C3.68 29 2.36 29 1 29 C0.93941406 27.74703125 0.87882813 26.4940625 0.81640625 25.203125 C0.73197744 23.55207276 0.64733061 21.90103165 0.5625 20.25 C0.52318359 19.425 0.48386719 18.6 0.44335938 17.75 C0.38051758 16.55117187 0.38051758 16.55117187 0.31640625 15.328125 C0.27974854 14.5949707 0.24309082 13.86181641 0.20532227 13.10644531 C0.01888535 10.65826332 0.01888535 10.65826332 -1 7 C-5.455 6.01 -5.455 6.01 -10 5 C-10 4.34 -10 3.68 -10 3 C-8.72125 2.87625 -7.4425 2.7525 -6.125 2.625 C-2.65209064 2.30957601 -2.65209064 2.30957601 0 0 Z " fill="#12192F" transform="translate(239,192)"/>
<path d="M0 0 C6.23553649 0.78739728 9.12424038 4.49756372 13.375 8.8125 C14.12394531 9.53759766 14.87289062 10.26269531 15.64453125 11.00976562 C16.34707031 11.71423828 17.04960937 12.41871094 17.7734375 13.14453125 C18.41716309 13.78753174 19.06088867 14.43053223 19.72412109 15.09301758 C21 17 21 17 20.70166016 19.2409668 C20.4701123 19.82144775 20.23856445 20.40192871 20 21 C16.06184982 19.41547369 13.45645895 16.68495679 10.5625 13.6875 C10.09779297 13.21376953 9.63308594 12.74003906 9.15429688 12.25195312 C7.76677242 10.83733614 6.38336493 9.41868488 5 8 C3.59041016 6.67935547 3.59041016 6.67935547 2.15234375 5.33203125 C0 3 0 3 0 0 Z " fill="#F3C860" transform="translate(185,44)"/>
<path d="M0 0 C4.95 0 9.9 0 15 0 C15 0.99 15 1.98 15 3 C14.01 3 13.02 3 12 3 C12.061875 3.94875 12.12375 4.8975 12.1875 5.875 C12.125625 6.90625 12.06375 7.9375 12 9 C8.3558226 11.4294516 6.28758728 11.16179575 2 11 C1.875 3.25 1.875 3.25 3 1 C2.01 0.67 1.02 0.34 0 0 Z " fill="#3F3D3D" transform="translate(209,432)"/>
<path d="M0 0 C1.2065625 0.0309375 1.2065625 0.0309375 2.4375 0.0625 C2.7675 1.0525 3.0975 2.0425 3.4375 3.0625 C5.24347656 3.04509766 5.24347656 3.04509766 7.0859375 3.02734375 C8.66145679 3.01796566 10.23697775 3.00886548 11.8125 3 C12.6065625 2.99162109 13.400625 2.98324219 14.21875 2.97460938 C20.2109375 2.94921875 20.2109375 2.94921875 22.4375 4.0625 C22.4375 5.3825 22.4375 6.7025 22.4375 8.0625 C21.4475 7.7325 20.4575 7.4025 19.4375 7.0625 C16.71823978 6.96639309 14.03085046 6.92316775 11.3125 6.9375 C10.57128906 6.93363281 9.83007812 6.92976562 9.06640625 6.92578125 C5.45520031 6.59503342 5.45520031 6.59503342 2.4375 8.0625 C-0.0625 8.1875 -0.0625 8.1875 -2.5625 8.0625 C-3.5625 7.0625 -3.5625 7.0625 -3.6875 4.0625 C-3.52180824 0.08589776 -3.52180824 0.08589776 0 0 Z " fill="#1B2136" transform="translate(202.5625,148.9375)"/>
<path d="M0 0 C0.99 0.33 1.98 0.66 3 1 C1.79310745 4.10343799 0.49403054 7.01193893 -1 10 C6.92 10 14.84 10 23 10 C23 10.33 23 10.66 23 11 C22.41508789 11.01981934 21.83017578 11.03963867 21.22753906 11.06005859 C18.56791975 11.15553481 15.90906162 11.26512142 13.25 11.375 C12.32960937 11.4059375 11.40921875 11.436875 10.4609375 11.46875 C9.57148438 11.50742188 8.68203125 11.54609375 7.765625 11.5859375 C6.54020996 11.63306885 6.54020996 11.63306885 5.29003906 11.68115234 C1.67242909 12.1848409 -0.43467636 13.43467636 -3 16 C-5.625 15.625 -5.625 15.625 -8 15 C-8.33 13.35 -8.66 11.7 -9 10 C-8.2575 9.649375 -7.515 9.29875 -6.75 8.9375 C-3.1422483 6.39567494 -1.99090888 3.90808039 0 0 Z " fill="#272D40" transform="translate(222,116)"/>
<path d="M0 0 C1.2065625 0.0309375 1.2065625 0.0309375 2.4375 0.0625 C3.69987731 2.58725462 3.53606404 4.37450466 3.5 7.1875 C3.49097656 8.09757812 3.48195312 9.00765625 3.47265625 9.9453125 C3.46105469 10.64398438 3.44945312 11.34265625 3.4375 12.0625 C2.7775 12.0625 2.1175 12.0625 1.4375 12.0625 C1.4375 12.7225 1.4375 13.3825 1.4375 14.0625 C4.4075 14.0625 7.3775 14.0625 10.4375 14.0625 C10.4375 14.3925 10.4375 14.7225 10.4375 15.0625 C3.1775 15.0625 -4.0825 15.0625 -11.5625 15.0625 C-11.2325 14.4025 -10.9025 13.7425 -10.5625 13.0625 C-7.9225 13.0625 -5.2825 13.0625 -2.5625 13.0625 C-2.8925 12.7325 -3.2225 12.4025 -3.5625 12.0625 C-3.66101171 10.23134117 -3.69222629 8.39630067 -3.6875 6.5625 C-3.69007813 5.5621875 -3.69265625 4.561875 -3.6953125 3.53125 C-3.51328024 0.14759147 -3.39949759 0.08291458 0 0 Z " fill="#D4D4D4" transform="translate(250.5625,434.9375)"/>
<path d="M0 0 C0.33 0 0.66 0 1 0 C1.01981934 0.80743652 1.03963867 1.61487305 1.06005859 2.44677734 C1.15505899 6.08985875 1.26483912 9.73234686 1.375 13.375 C1.4059375 14.64601562 1.436875 15.91703125 1.46875 17.2265625 C1.50742187 18.43828125 1.54609375 19.65 1.5859375 20.8984375 C1.6173584 22.01911621 1.6487793 23.13979492 1.68115234 24.29443359 C1.73411203 27.14710412 1.73411203 27.14710412 4 29 C3.625 31.625 3.625 31.625 3 34 C-2.12839994 35.81975482 -6.17684382 33.8599099 -11 32 C-11 31.34 -11 30.68 -11 30 C-9.329375 29.8453125 -9.329375 29.8453125 -7.625 29.6875 C-6.42875 29.460625 -5.2325 29.23375 -4 29 C-1.74621614 25.61932421 -1.63979987 24.01135524 -1.3671875 20.01953125 C-1.28339844 18.85615234 -1.19960938 17.69277344 -1.11328125 16.49414062 C-0.99533203 14.67172852 -0.99533203 14.67172852 -0.875 12.8125 C-0.74544922 10.97268555 -0.74544922 10.97268555 -0.61328125 9.09570312 C-0.40096208 6.06425714 -0.19686921 3.03248215 0 0 Z " fill="#10162D" transform="translate(260,128)"/>
<path d="M0 0 C2.64 0 5.28 0 8 0 C8 4.62 8 9.24 8 14 C8.99 14.33 9.98 14.66 11 15 C11 15.66 11 16.32 11 17 C7.37 17 3.74 17 0 17 C0.495 15.515 0.495 15.515 1 14 C1.66 14 2.32 14 3 14 C3 10.04 3 6.08 3 2 C2.01 2 1.02 2 0 2 C0 1.34 0 0.68 0 0 Z " fill="#393837" transform="translate(322,433)"/>
<path d="M0 0 C0 3.33333333 0 6.66666667 0 10 C-1.45635371 10.22174933 -2.91522956 10.42698698 -4.375 10.625 C-5.18710937 10.74101562 -5.99921875 10.85703125 -6.8359375 10.9765625 C-7.55007812 10.98429687 -8.26421875 10.99203125 -9 11 C-11 9 -11 9 -11.3125 6.0625 C-11 3 -11 3 -10 1.125 C-6.74686316 -0.70488947 -3.68609891 -0.18128355 0 0 Z " fill="#3E3D3D" transform="translate(68,439)"/>
<path d="M0 0 C1.67542976 0.28604898 3.34385343 0.61781233 5 1 C5.02687279 2.81242052 5.04633715 4.62495233 5.0625 6.4375 C5.07410156 7.44683594 5.08570313 8.45617187 5.09765625 9.49609375 C5 12 5 12 4 13 C8.65052872 13.26932521 8.65052872 13.26932521 13 12 C13 12.99 13 13.98 13 15 C5.74 15 -1.52 15 -9 15 C-9 14.67 -9 14.34 -9 14 C-6.03 14 -3.06 14 0 14 C-0.33 13.34 -0.66 12.68 -1 12 C-1.09584979 10.1478437 -1.12983606 8.29212847 -1.125 6.4375 C-1.12757813 5.44621094 -1.13015625 4.45492188 -1.1328125 3.43359375 C-1 1 -1 1 0 0 Z " fill="#DBDBDA" transform="translate(190,435)"/>
<path d="M0 0 C2.875 -0.1875 2.875 -0.1875 6 0 C8 3 8 3 7.9375 5.5625 C7.628125 6.366875 7.31875 7.17125 7 8 C5.33333333 8.66666667 3.66666667 9.33333333 2 10 C1.10613836 12.54775306 1.10613836 12.54775306 1 15 C0.67 15 0.34 15 0 15 C-0.433125 13.4221875 -0.433125 13.4221875 -0.875 11.8125 C-1.77225193 8.77181289 -2.76423419 5.91287656 -4 3 C-3.01 3 -2.02 3 -1 3 C-0.67 2.01 -0.34 1.02 0 0 Z " fill="#1A1810" transform="translate(304,134)"/>
<path d="M0 0 C1.99954746 -0.04254356 4.00041636 -0.04080783 6 0 C7.85685405 1.85685405 7.34677463 4.93937929 7.5 7.4375 C7.64147326 11.87784331 7.64147326 11.87784331 9 16 C6.03 16 3.06 16 0 16 C0.33 15.34 0.66 14.68 1 14 C1.09632897 12.18958207 1.12981533 10.37547247 1.125 8.5625 C1.12757813 7.59441406 1.13015625 6.62632812 1.1328125 5.62890625 C1.11213973 2.88982171 1.11213973 2.88982171 0 0 Z " fill="#2E2C2B" transform="translate(193,433)"/>
<path d="M0 0 C3.63 0.33 7.26 0.66 11 1 C11.33 2.65 11.66 4.3 12 6 C9.29120665 7.35439668 6.99066732 7.06501451 4 7 C4 7.66 4 8.32 4 9 C2.35 8.67 0.7 8.34 -1 8 C-1.625 5.6875 -1.625 5.6875 -2 3 C-1.34 2.01 -0.68 1.02 0 0 Z " fill="#4C4B4A" transform="translate(361,448)"/>
<path d="M0 0 C9.57 0 19.14 0 29 0 C29 0.33 29 0.66 29 1 C22.29207194 1.79924249 15.75559498 2.0965085 9 2 C9 7.28 9 12.56 9 18 C8.67 16.68 8.34 15.36 8 14 C7.34 14 6.68 14 6 14 C6 10.04 6 6.08 6 2 C3.03 1.505 3.03 1.505 0 1 C0 0.67 0 0.34 0 0 Z " fill="#0A1128" transform="translate(223,127)"/>
<path d="M0 0 C0.66 0 1.32 0 2 0 C2.05607422 1.46373047 2.05607422 1.46373047 2.11328125 2.95703125 C2.17902344 4.22933594 2.24476563 5.50164062 2.3125 6.8125 C2.37050781 8.07707031 2.42851562 9.34164062 2.48828125 10.64453125 C3.01991724 14.13060238 3.3936933 14.85986198 6 17 C5.74853421 19.13745922 5.54074221 20.45925779 4 22 C1.5 22.125 1.5 22.125 -1 22 C-2 21 -2 21 -2.09765625 19.15234375 C-2.06510417 17.1015625 -2.03255208 15.05078125 -2 13 C-1.34 13 -0.68 13 0 13 C0 8.71 0 4.42 0 0 Z " fill="#0D142A" transform="translate(237,69)"/>
<path d="M0 0 C4.87664009 -0.34833144 7.77050005 0.58314288 12 3 C12 3.66 12 4.32 12 5 C8.37 4.67 4.74 4.34 1 4 C0.67 5.65 0.34 7.3 0 9 C-1.17982499 11.44967679 -2.58426557 13.67088852 -4 16 C-4.66 15.34 -5.32 14.68 -6 14 C-5.65082368 10.22254703 -4.32850651 7.4361522 -2.4375 4.1875 C-1.98246094 3.39730469 -1.52742187 2.60710937 -1.05859375 1.79296875 C-0.53458984 0.90544922 -0.53458984 0.90544922 0 0 Z " fill="#2D3345" transform="translate(233,97)"/>
<path d="M0 0 C0.33 0 0.66 0 1 0 C1 5.28 1 10.56 1 16 C0.34 16.33 -0.32 16.66 -1 17 C2.3 17.33 5.6 17.66 9 18 C9 18.33 9 18.66 9 19 C-5.25 19 -5.25 19 -9 18 C-8.01 17.67 -7.02 17.34 -6 17 C-5.03171512 15.29359132 -5.03171512 15.29359132 -4.39453125 13.18359375 C-4.13349609 12.41982422 -3.87246094 11.65605469 -3.60351562 10.86914062 C-3.34248047 10.06669922 -3.08144531 9.26425781 -2.8125 8.4375 C-2.53986328 7.63119141 -2.26722656 6.82488281 -1.98632812 5.99414062 C-1.31362519 3.99963545 -0.65543585 2.00024598 0 0 Z " fill="#D7D7D7" transform="translate(44,431)"/>
<path d="M0 0 C0.74958984 0.01353516 1.49917969 0.02707031 2.27148438 0.04101562 C4.11879767 0.07631461 5.96574066 0.13012083 7.8125 0.1875 C7.8125 1.1775 7.8125 2.1675 7.8125 3.1875 C4.8425 2.8575 1.8725 2.5275 -1.1875 2.1875 C-0.8575 2.5175 -0.5275 2.8475 -0.1875 3.1875 C-0.14686168 4.85367115 -0.144779 6.52138095 -0.1875 8.1875 C-1.84364657 8.56968767 -3.51207024 8.90145102 -5.1875 9.1875 C-6.1875 8.1875 -6.1875 8.1875 -6.25 5.625 C-6.229375 4.820625 -6.20875 4.01625 -6.1875 3.1875 C-9.35416667 5.02083333 -9.35416667 5.02083333 -11.1875 8.1875 C-11.54490879 3.7794583 -11.54490879 3.7794583 -10.1875 1.53125 C-7.02678904 -0.59235268 -3.66666562 -0.12489079 0 0 Z " fill="#555454" transform="translate(371.1875,431.8125)"/>
<path d="M0 0 C1.17629657 3.47525916 0.81182496 5.87491481 0.00390625 9.421875 C-0.33930664 10.95908203 -0.33930664 10.95908203 -0.68945312 12.52734375 C-0.93630859 13.59082031 -1.18316406 14.65429688 -1.4375 15.75 C-1.68048828 16.82894531 -1.92347656 17.90789062 -2.17382812 19.01953125 C-2.77456295 21.68161107 -3.38355513 24.34152209 -4 27 C-4.99 27 -5.98 27 -7 27 C-6.49451662 18.45907394 -4.93265709 10.32622708 -3 2 C-2.34 2 -1.68 2 -1 2 C-0.67 1.34 -0.34 0.68 0 0 Z " fill="#3E3516" transform="translate(295,195)"/>
<path d="M0 0 C1.65 0.33 3.3 0.66 5 1 C5 4.63 5 8.26 5 12 C4.01 12.33 3.02 12.66 2 13 C1.67 13.66 1.34 14.32 1 15 C-1.26166232 11.60750652 -1.24515545 10.34798499 -1.1875 6.375 C-1.18105469 5.39273437 -1.17460937 4.41046875 -1.16796875 3.3984375 C-1 1 -1 1 0 0 Z " fill="#F3F3F3" transform="translate(344,435)"/>
<path d="M0 0 C-0.66 0.66 -1.32 1.32 -2 2 C-1.67958603 4.60280568 -1.67958603 4.60280568 -1 7 C-4.375 7.125 -4.375 7.125 -8 7 C-8.66 6.34 -9.32 5.68 -10 5 C-10.99 8.465 -10.99 8.465 -12 12 C-12.33 12 -12.66 12 -13 12 C-13.41668469 7.74981621 -13.44022082 5.64657432 -11 2.0625 C-6.96968211 -0.70834355 -4.80160858 -0.40691598 0 0 Z " fill="#454442" transform="translate(174,432)"/>
<path d="M0 0 C2.46278801 2.46278801 2.99771255 4.70676982 4 8 C7.63 8 11.26 8 15 8 C15 8.33 15 8.66 15 9 C12.36 9 9.72 9 7 9 C7 9.66 7 10.32 7 11 C9.31 11 11.62 11 14 11 C14 11.33 14 11.66 14 12 C10.04 12 6.08 12 2 12 C-1.3203125 6.140625 -1.3203125 6.140625 -2 4 C-1.1171875 1.734375 -1.1171875 1.734375 0 0 Z " fill="#3F4556" transform="translate(222,186)"/>
<path d="M0 0 C3 0.125 3 0.125 4 1.125 C3.91036938 2.81641656 3.75422324 4.50459602 3.5625 6.1875 C3.46066406 7.10660156 3.35882813 8.02570313 3.25390625 8.97265625 C3.12822266 10.03806641 3.12822266 10.03806641 3 11.125 C2.67 10.465 2.34 9.805 2 9.125 C0.66923011 8.78157551 -0.66431979 8.44880126 -2 8.125 C-4 6.125 -4 6.125 -4.1875 3.5625 C-3.91067812 -0.03618446 -3.67800108 0.15325004 0 0 Z " fill="#20263A" transform="translate(197,114.875)"/>
<path d="M0 0 C1.23556641 0.01740234 1.23556641 0.01740234 2.49609375 0.03515625 C3.32238281 0.04417969 4.14867187 0.05320312 5 0.0625 C5.63808594 0.07410156 6.27617187 0.08570313 6.93359375 0.09765625 C6.60359375 2.40765625 6.27359375 4.71765625 5.93359375 7.09765625 C3.29359375 7.09765625 0.65359375 7.09765625 -2.06640625 7.09765625 C-2.06640625 6.10765625 -2.06640625 5.11765625 -2.06640625 4.09765625 C-3.05640625 4.42765625 -4.04640625 4.75765625 -5.06640625 5.09765625 C-2.6606399 0.12573913 -2.6606399 0.12573913 0 0 Z " fill="#403E3E" transform="translate(270.06640625,431.90234375)"/>
<path d="M0 0 C7.2 -0.36 7.2 -0.36 10.5 1.125 C12 3 12 3 12 9 C8.04 9 4.08 9 0 9 C0 8.67 0 8.34 0 8 C2.31 8 4.62 8 7 8 C6.67 6.35 6.34 4.7 6 3 C3.69 2.67 1.38 2.34 -1 2 C-0.67 1.34 -0.34 0.68 0 0 Z " fill="#312F2F" transform="translate(117,432)"/>
<path d="M0 0 C2.625 0.375 2.625 0.375 5 1 C5.625 3.3125 5.625 3.3125 6 6 C5.01 7.485 5.01 7.485 4 9 C-0.875 8.125 -0.875 8.125 -2 7 C-2.1875 4.5625 -2.1875 4.5625 -2 2 C-1.34 1.34 -0.68 0.68 0 0 Z " fill="#1F253A" transform="translate(236,60)"/>
<path d="M0 0 C0.33 0 0.66 0 1 0 C1.06058594 0.83144531 1.12117188 1.66289062 1.18359375 2.51953125 C1.26738281 3.60621094 1.35117187 4.69289063 1.4375 5.8125 C1.55931641 7.43091797 1.55931641 7.43091797 1.68359375 9.08203125 C1.90212461 12.05989905 1.90212461 12.05989905 3 15 C-0.3 15 -3.6 15 -7 15 C-6.34 10.71 -5.68 6.42 -5 2 C-4.67 2 -4.34 2 -4 2 C-3.67 4.64 -3.34 7.28 -3 10 C-2.34 9.67 -1.68 9.34 -1 9 C-0.53348793 6.87423218 -0.53348793 6.87423218 -0.375 4.4375 C-0.30023438 3.61121094 -0.22546875 2.78492188 -0.1484375 1.93359375 C-0.09945313 1.29550781 -0.05046875 0.65742188 0 0 Z " fill="#605F5F" transform="translate(354,435)"/>
<path d="M0 0 C2.625 0.375 2.625 0.375 5 1 C5.6875 3.3125 5.6875 3.3125 6 6 C4.8125 7.875 4.8125 7.875 3 9 C0.86254078 8.74853421 -0.45925779 8.54074221 -2 7 C-2.1875 4.5625 -2.1875 4.5625 -2 2 C-1.34 1.34 -0.68 0.68 0 0 Z " fill="#1C2237" transform="translate(258,55)"/>
<path d="M0 0 C1.27875 -0.061875 2.5575 -0.12375 3.875 -0.1875 C4.95394531 -0.23970703 4.95394531 -0.23970703 6.0546875 -0.29296875 C6.69664062 -0.19628906 7.33859375 -0.09960938 8 0 C10 3 10 3 10 8 C6.04 8 2.08 8 -2 8 C-2 7.34 -2 6.68 -2 6 C0.31 6 2.62 6 5 6 C4.80528889 4.05000871 4.80528889 4.05000871 4 2 C2.0162233 0.71563266 2.0162233 0.71563266 0 0 Z " fill="#2D2B2C" transform="translate(168,433)"/>
<path d="M0 0 C4.44936709 -0.36075949 4.44936709 -0.36075949 6.8125 1.1875 C8 3 8 3 8 8 C4.04 8 0.08 8 -4 8 C-4 7.34 -4 6.68 -4 6 C-1.69 6 0.62 6 3 6 C1.515 3.03 1.515 3.03 0 0 Z " fill="#2E2D2B" transform="translate(293,433)"/>
<path d="M0 0 C1.32 0.66 2.64 1.32 4 2 C3.34 2 2.68 2 2 2 C2 7.28 2 12.56 2 18 C3.32 18.33 4.64 18.66 6 19 C6 19.33 6 19.66 6 20 C3.03 20 0.06 20 -3 20 C-2.67 19.34 -2.34 18.68 -2 18 C-1.34 18 -0.68 18 0 18 C0 12.06 0 6.12 0 0 Z " fill="#31302E" transform="translate(25,429)"/>
<path d="M0 0 C2.84927902 5.29151818 4.28788143 9.95448991 4 16 C3.01 16 2.02 16 1 16 C0.01 11.71 -0.98 7.42 -2 3 C-1.34 3 -0.68 3 0 3 C0 2.01 0 1.02 0 0 Z " fill="#2A3043" transform="translate(225,154)"/>
<path d="M0 0 C0.33 0 0.66 0 1 0 C1.02505615 0.56509277 1.0501123 1.13018555 1.07592773 1.71240234 C1.19179956 4.26683742 1.31456537 6.8208955 1.4375 9.375 C1.47681641 10.26445312 1.51613281 11.15390625 1.55664062 12.0703125 C1.59853516 12.92109375 1.64042969 13.771875 1.68359375 14.6484375 C1.72025146 15.43395996 1.75690918 16.21948242 1.79467773 17.02880859 C1.890891 19.07523496 1.890891 19.07523496 3 21 C1.68 21 0.36 21 -1 21 C-1.0269501 18.06243881 -1.04681474 15.12512445 -1.0625 12.1875 C-1.07087891 11.35412109 -1.07925781 10.52074219 -1.08789062 9.66210938 C-1.09111328 8.85966797 -1.09433594 8.05722656 -1.09765625 7.23046875 C-1.10289307 6.49207764 -1.10812988 5.75368652 -1.11352539 4.99291992 C-1 3 -1 3 0 0 Z " fill="#0B1229" transform="translate(241,200)"/>
<path d="M0 0 C2.97 0 5.94 0 9 0 C9 1.32 9 2.64 9 4 C2.25 5.125 2.25 5.125 0 4 C0 2.68 0 1.36 0 0 Z " fill="#EAE9E9" transform="translate(364,450)"/>
<path d="M0 0 C0.99 0 1.98 0 3 0 C3.33 0.66 3.66 1.32 4 2 C6.32156597 2.40729228 8.6568787 2.74438677 11 3 C11 3.99 11 4.98 11 6 C9.35425434 6.02688151 7.70838587 6.04634123 6.0625 6.0625 C5.14597656 6.07410156 4.22945313 6.08570313 3.28515625 6.09765625 C1 6 1 6 0 5 C-0.04063832 3.33382885 -0.042721 1.66611905 0 0 Z " fill="#4E4D4C" transform="translate(78,444)"/>
<path d="M0 0 C1.32 0 2.64 0 4 0 C3.67 2.97 3.34 5.94 3 9 C-1 8 -1 8 -2 7 C-2.1875 4.5625 -2.1875 4.5625 -2 2 C-1.34 1.34 -0.68 0.68 0 0 Z " fill="#2E2D2C" transform="translate(208,433)"/>
<path d="M0 0 C2.64 0 5.28 0 8 0 C8 1.32 8 2.64 8 4 C7 5 7 5 3.9375 5.0625 C2.968125 5.041875 1.99875 5.02125 1 5 C0.67 3.35 0.34 1.7 0 0 Z " fill="#ECEBEB" transform="translate(210,450)"/>
<path d="M0 0 C0.33 0 0.66 0 1 0 C1 4.29 1 8.58 1 13 C0.34 13 -0.32 13 -1 13 C-1.33 13.99 -1.66 14.98 -2 16 C-3.65 14.68 -5.3 13.36 -7 12 C-6.67 10.68 -6.34 9.36 -6 8 C-3.03 9.98 -3.03 9.98 0 12 C0 8.04 0 4.08 0 0 Z " fill="#373C4E" transform="translate(236,69)"/>
<path d="M0 0 C0 1.98 0 3.96 0 6 C-3.34373475 5.44271087 -6.03312999 4.64826111 -9 3 C-6.38997624 -0.48003168 -4.1689578 -0.27793052 0 0 Z " fill="#3E3D3D" transform="translate(320,432)"/>
<path d="M0 0 C2.31711928 3.47567892 2.16483998 4.41464383 1.75 8.4375 C1.66234375 9.38496094 1.5746875 10.33242187 1.484375 11.30859375 C1.01769674 13.9016689 0.30840586 15.73173902 -1 18 C-2.04559253 11.41276707 -1.83292414 6.40766041 0 0 Z " fill="#332B13" transform="translate(303,146)"/>
<path d="M0 0 C0.99 0.66 1.98 1.32 3 2 C2.67 2.99 2.34 3.98 2 5 C5.63 5 9.26 5 13 5 C13 5.33 13 5.66 13 6 C9.7 6 6.4 6 3 6 C3 6.66 3 7.32 3 8 C1.35 7.67 -0.3 7.34 -2 7 C-1.125 2.25 -1.125 2.25 0 0 Z " fill="#424140" transform="translate(362,441)"/>
<path d="M0 0 C0.33 0 0.66 0 1 0 C2.92932559 6.10953104 0.54092546 10.48193871 -2 16 C-2.99 15.67 -3.98 15.34 -5 15 C-3.35 10.05 -1.7 5.1 0 0 Z " fill="#494847" transform="translate(42,427)"/>
<path d="M0 0 C0.99 0 1.98 0 3 0 C3.2475 0.598125 3.495 1.19625 3.75 1.8125 C5.16370012 4.28647521 6.65055383 5.43370255 9 7 C2.9453125 7.1953125 2.9453125 7.1953125 1 7 C0.34 6.34 -0.32 5.68 -1 5 C-0.625 2.375 -0.625 2.375 0 0 Z " fill="#333231" transform="translate(206,450)"/>
<path d="M0 0 C1.32 0 2.64 0 4 0 C4.99 3.3 5.98 6.6 7 10 C6.01 10 5.02 10 4 10 C3.67 10.66 3.34 11.32 3 12 C2.49440092 10.56445975 1.9957251 9.1264798 1.5 7.6875 C1.2215625 6.88699219 0.943125 6.08648437 0.65625 5.26171875 C0 3 0 3 0 0 Z " fill="#2D3144" transform="translate(197,124)"/>
<path d="M0 0 C0.33 0.66 0.66 1.32 1 2 C1.66 2.33 2.32 2.66 3 3 C2.34 3.66 1.68 4.32 1 5 C0.63168919 6.93257855 0.63168919 6.93257855 0.5859375 9.1328125 C0.54726562 9.93847656 0.50859375 10.74414062 0.46875 11.57421875 C0.4378125 12.41597656 0.406875 13.25773437 0.375 14.125 C0.33632812 14.97449219 0.29765625 15.82398437 0.2578125 16.69921875 C0.16343506 18.79911684 0.08062414 20.89952891 0 23 C-0.33 23 -0.66 23 -1 23 C-1.06058594 21.79601562 -1.12117187 20.59203125 -1.18359375 19.3515625 C-1.26799732 17.77602923 -1.35264541 16.20050904 -1.4375 14.625 C-1.49647461 13.43390625 -1.49647461 13.43390625 -1.55664062 12.21875 C-1.68893404 7.97398779 -1.68893404 7.97398779 -3 4 C-2.01 2.68 -1.02 1.36 0 0 Z " fill="#282E41" transform="translate(209,86)"/>
<path d="M0 0 C2.475 0.495 2.475 0.495 5 1 C5 2.65 5 4.3 5 6 C3.35 6.33 1.7 6.66 0 7 C0 4.69 0 2.38 0 0 Z " fill="#E5E4E4" transform="translate(366,434)"/>
<path d="M0 0 C2.475 0.495 2.475 0.495 5 1 C5 2.65 5 4.3 5 6 C3.35 6.33 1.7 6.66 0 7 C0 4.69 0 2.38 0 0 Z " fill="#F8F8F8" transform="translate(428,430)"/>
<path d="M0 0 C0 0.99 0 1.98 0 3 C-4.1205746 4.99785435 -7.45194365 5.17835515 -12 5 C-10.68 4.67 -9.36 4.34 -8 4 C-8.33 3.01 -8.66 2.02 -9 1 C-2.25 0 -2.25 0 0 0 Z " fill="#525151" transform="translate(301,445)"/>
<path d="M0 0 C5.75 0.875 5.75 0.875 8 2 C8 2.99 8 3.98 8 5 C5.69 5 3.38 5 1 5 C0.67 3.35 0.34 1.7 0 0 Z " fill="#E4E3E3" transform="translate(81,442)"/>
<path d="M0 0 C0.763125 0.20625 1.52625 0.4125 2.3125 0.625 C2.3125 1.945 2.3125 3.265 2.3125 4.625 C0.0025 4.625 -2.3075 4.625 -4.6875 4.625 C-5.0175 3.635 -5.3475 2.645 -5.6875 1.625 C-2.6875 -0.375 -2.6875 -0.375 0 0 Z " fill="#D6D6D5" transform="translate(65.6875,434.375)"/>
<path d="M0 0 C2.0625 0.4375 2.0625 0.4375 4 1 C4 2.98 4 4.96 4 7 C2.35 6.67 0.7 6.34 -1 6 C-1.042721 4.33388095 -1.04063832 2.66617115 -1 1 C-0.67 0.67 -0.34 0.34 0 0 Z " fill="#E9E9E9" transform="translate(212,434)"/>
<path d="M0 0 C1.32 0.33 2.64 0.66 4 1 C4 1.66 4 2.32 4 3 C0.25764681 5.44989101 -3.44225419 5.23086143 -7.75 5.125 C-8.44738281 5.11597656 -9.14476562 5.10695313 -9.86328125 5.09765625 C-11.57566958 5.07419888 -13.28788004 5.03833104 -15 5 C-15 4.67 -15 4.34 -15 4 C-10.38 3.67 -5.76 3.34 -1 3 C-0.67 2.01 -0.34 1.02 0 0 Z " fill="#696869" transform="translate(407,445)"/>
<path d="M0 0 C1.32 0 2.64 0 4 0 C4 1.65 4 3.3 4 5 C2.35 5.33 0.7 5.66 -1 6 C-1.625 4.125 -1.625 4.125 -2 2 C-1.34 1.34 -0.68 0.68 0 0 Z " fill="#DBDADA" transform="translate(64,441)"/>
<path d="M0 0 C1.67542976 0.28604898 3.34385343 0.61781233 5 1 C5 2.32 5 3.64 5 5 C2.69 5 0.38 5 -2 5 C-1.125 1.125 -1.125 1.125 0 0 Z " fill="#D3D2D2" transform="translate(168,434)"/>
<path d="M0 0 C1.98 0 3.96 0 6 0 C6 1.98 6 3.96 6 6 C4.68 6 3.36 6 2 6 C0 3 0 3 0 0 Z " fill="#363633" transform="translate(142,432)"/>
<path d="M0 0 C0.66 0.33 1.32 0.66 2 1 C1.25 3.4375 1.25 3.4375 0 6 C-2.125 6.8125 -2.125 6.8125 -4 7 C-4.33 5.68 -4.66 4.36 -5 3 C-2.625 1.4375 -2.625 1.4375 0 0 Z " fill="#F4CB6B" transform="translate(336,58)"/>
<path d="M0 0 C0.66 0 1.32 0 2 0 C2.28875 0.94875 2.5775 1.8975 2.875 2.875 C3.76825109 6.05211578 3.76825109 6.05211578 6 8 C0.25 7.125 0.25 7.125 -2 6 C-1.125 1.125 -1.125 1.125 0 0 Z " fill="#2B2B2A" transform="translate(363,435)"/>
<path d="M0 0 C1.65 0.33 3.3 0.66 5 1 C5 2.32 5 3.64 5 5 C2.69 5 0.38 5 -2 5 C-1.34 3.35 -0.68 1.7 0 0 Z " fill="#D6D6D6" transform="translate(119,434)"/>
<path d="M0 0 C2.0625 0.4375 2.0625 0.4375 4 1 C4.33 2.32 4.66 3.64 5 5 C2.69 5 0.38 5 -2 5 C-1.125 1.125 -1.125 1.125 0 0 Z " fill="#D9D9D9" transform="translate(271,434)"/>
<path d="M0 0 C2.0625 0.4375 2.0625 0.4375 4 1 C4.33 2.32 4.66 3.64 5 5 C2.69 5 0.38 5 -2 5 C-1.125 1.125 -1.125 1.125 0 0 Z " fill="#DAD9D9" transform="translate(291,434)"/>
<path d="M0 0 C2.97 0.495 2.97 0.495 6 1 C6 1.66 6 2.32 6 3 C6.99 3.33 7.98 3.66 9 4 C2.25 5.125 2.25 5.125 0 4 C0 2.68 0 1.36 0 0 Z " fill="#DBDADA" transform="translate(84,434)"/>
<path d="M0 0 C1.4540625 0.0309375 1.4540625 0.0309375 2.9375 0.0625 C2.9375 1.3825 2.9375 2.7025 2.9375 4.0625 C1.2875 4.3925 -0.3625 4.7225 -2.0625 5.0625 C-2.7225 3.7425 -3.3825 2.4225 -4.0625 1.0625 C-3.0625 0.0625 -3.0625 0.0625 0 0 Z " fill="#41403F" transform="translate(232.0625,424.9375)"/>
<path d="M0 0 C1.98 0 3.96 0 6 0 C6 3.10551666 5.4606285 4.35261084 4 7 C1.49962266 4.82575883 0.56371414 3.26954202 0 0 Z " fill="#10172D" transform="translate(217,181)"/>
<path d="M0 0 C0.33 0.99 0.66 1.98 1 3 C-2.63 2.67 -6.26 2.34 -10 2 C-10 1.34 -10 0.68 -10 0 C-6.7169902 -1.6415049 -3.57454967 -0.51888624 0 0 Z " fill="#21273B" transform="translate(244,99)"/>
<path d="M0 0 C1.65 0 3.3 0 5 0 C5 1.32 5 2.64 5 4 C1.25 5.125 1.25 5.125 -1 4 C-0.67 2.68 -0.34 1.36 0 0 Z " fill="#3C3B3B" transform="translate(325,425)"/>
<path d="M0 0 C0.33 0.99 0.66 1.98 1 3 C4.465 2.505 4.465 2.505 8 2 C8.33 2.66 8.66 3.32 9 4 C7.68 4.99 6.36 5.98 5 7 C3.0625 6.3125 3.0625 6.3125 1 5 C0.25 2.375 0.25 2.375 0 0 Z " fill="#EFC536" transform="translate(272,132)"/>
<path d="M0 0 C-0.8125 1.9375 -0.8125 1.9375 -2 4 C-4.75078884 4.91692961 -6.35948913 5.10886083 -9.1875 5.0625 C-11.0746875 5.0315625 -11.0746875 5.0315625 -13 5 C-13 4.67 -13 4.34 -13 4 C-9.535 3.505 -9.535 3.505 -6 3 C-6.99 2.34 -7.98 1.68 -9 1 C-2.25 0 -2.25 0 0 0 Z " fill="#5E5D5D" transform="translate(281,445)"/>
<path d="M0 0 C2.97 0 5.94 0 9 0 C9.33 0.99 9.66 1.98 10 3 C6.7 3 3.4 3 0 3 C0 2.01 0 1.02 0 0 Z " fill="#DBDADA" transform="translate(364,443)"/>
<path d="M0 0 C3.63 0 7.26 0 11 0 C11 0.33 11 0.66 11 1 C8.69 1 6.38 1 4 1 C3.67 1.99 3.34 2.98 3 4 C0.9375 4.6875 0.9375 4.6875 -1 5 C-0.67 3.35 -0.34 1.7 0 0 Z " fill="#3F3E3E" transform="translate(59,432)"/>
<path d="M0 0 C0.99 0.495 0.99 0.495 2 1 C2 1.99 2 2.98 2 4 C3.65 4 5.3 4 7 4 C6.34 5.32 5.68 6.64 5 8 C1.125 6.125 1.125 6.125 0 5 C-0.04063832 3.33382885 -0.042721 1.66611905 0 0 Z " fill="#1D1A10" transform="translate(272,136)"/>
<path d="M0 0 C0.99 0 1.98 0 3 0 C2.46930939 3.82097239 1.50298434 6.06171403 -1 9 C-1.625 6.1875 -1.625 6.1875 -2 3 C-1.34 2.01 -0.68 1.02 0 0 Z " fill="#22273C" transform="translate(229,104)"/>
<path d="M0 0 C2.97 0.495 2.97 0.495 6 1 C6.33 2.32 6.66 3.64 7 5 C1.25 4.25 1.25 4.25 -1 2 C-0.67 1.34 -0.34 0.68 0 0 Z " fill="#2A3043" transform="translate(245,100)"/>
<path d="M0 0 C1.98 0.495 1.98 0.495 4 1 C4.33 2.32 4.66 3.64 5 5 C2.03 4.505 2.03 4.505 -1 4 C-0.67 2.68 -0.34 1.36 0 0 Z " fill="#F3C862" transform="translate(337,177)"/>
<path d="M0 0 C0.99 0.33 1.98 0.66 3 1 C1.92598892 3.91517292 1.22189824 5.77810176 -1 8 C-1.66 7.67 -2.32 7.34 -3 7 C-1.125 2.25 -1.125 2.25 0 0 Z " fill="#21273A" transform="translate(222,116)"/>
<path d="M0 0 C1.21236328 0.04060547 1.21236328 0.04060547 2.44921875 0.08203125 C3.06410156 0.11683594 3.67898438 0.15164063 4.3125 0.1875 C3.384375 0.64576172 3.384375 0.64576172 2.4375 1.11328125 C1.03803168 1.82073306 -0.33914477 2.57441408 -1.6875 3.375 C-4.11613035 4.36163108 -5.26197091 4.05376039 -7.6875 3.1875 C-5.26849268 0.20484049 -3.789448 -0.16475861 0 0 Z " fill="#454344" transform="translate(292.6875,431.8125)"/>
<path d="M0 0 C0.33 0 0.66 0 1 0 C1 3.3 1 6.6 1 10 C0.01 10 -0.98 10 -2 10 C-2.17942163 6.05272412 -2.09350689 3.4019487 0 0 Z " fill="#2E2714" transform="translate(290,212)"/>
<path d="M0 0 C1.32 0.33 2.64 0.66 4 1 C4 2.98 4 4.96 4 7 C3.01 7 2.02 7 1 7 C0.67 4.69 0.34 2.38 0 0 Z " fill="#1D2438" transform="translate(225,163)"/>
<path d="M0 0 C3.3 0 6.6 0 10 0 C10 1.32 10 2.64 10 4 C6.7 3.01 3.4 2.02 0 1 C0 0.67 0 0.34 0 0 Z " fill="#091128" transform="translate(215,153)"/>
<path d="M0 0 C1.74627478 2.61941217 2.38722388 4.03824877 3 7 C1.68 7.33 0.36 7.66 -1 8 C-1.33 6.02 -1.66 4.04 -2 2 C-1.34 2 -0.68 2 0 2 C0 1.34 0 0.68 0 0 Z " fill="#313848" transform="translate(229,168)"/>
<path d="M0 0 C1.65 0 3.3 0 5 0 C4.49396008 2.16874252 4.00016187 3.99967627 3 6 C2.01 5.67 1.02 5.34 0 5 C0 3.35 0 1.7 0 0 Z " fill="#11172F" transform="translate(223,111)"/>
<path d="M0 0 C0 0.99 0 1.98 0 3 C-5.41538462 4.23076923 -5.41538462 4.23076923 -8.375 3.0625 C-8.91125 2.711875 -9.4475 2.36125 -10 2 C-8.7090864 1.66376204 -7.41723903 1.33110751 -6.125 1 C-5.40570313 0.814375 -4.68640625 0.62875 -3.9453125 0.4375 C-2 0 -2 0 0 0 Z " fill="#545354" transform="translate(465,444)"/>
<path d="M0 0 C2.1385485 2.1385485 2.42655063 3.13275314 3 6 C2.34 6 1.68 6 1 6 C0.67 6.66 0.34 7.32 0 8 C-0.66 6.02 -1.32 4.04 -2 2 C-1.34 1.34 -0.68 0.68 0 0 Z " fill="#2C3144" transform="translate(222,186)"/>
<path d="M0 0 C1.32 0.33 2.64 0.66 4 1 C4 1.66 4 2.32 4 3 C2.46875 4.2890625 2.46875 4.2890625 0.5 5.625 C-0.1496875 6.07101563 -0.799375 6.51703125 -1.46875 6.9765625 C-1.9740625 7.31429687 -2.479375 7.65203125 -3 8 C-1.125 2.25 -1.125 2.25 0 0 Z " fill="#FCF6DD" transform="translate(331,158)"/>
<path d="M0 0 C0.66 0.33 1.32 0.66 2 1 C1.67 2.32 1.34 3.64 1 5 C-0.98 5 -2.96 5 -5 5 C-4.01 4.67 -3.02 4.34 -2 4 C-2 3.01 -2 2.02 -2 1 C-1.34 0.67 -0.68 0.34 0 0 Z " fill="#1A213C" transform="translate(312,239)"/>
<path d="M0 0 C0.33 0 0.66 0 1 0 C0.25 6.625 0.25 6.625 -2 10 C-2.1953125 3.9453125 -2.1953125 3.9453125 -2 2 C-1.34 1.34 -0.68 0.68 0 0 Z " fill="#221E10" transform="translate(295,190)"/>
<path d="M0 0 C-1.15173355 2.46800047 -2.04783565 4.04783565 -4 6 C-4.99 6 -5.98 6 -7 6 C-7 5.34 -7 4.68 -7 4 C-2.52941176 0 -2.52941176 0 0 0 Z " fill="#141B30" transform="translate(217,82)"/>
<path d="M0 0 C0.66 0 1.32 0 2 0 C2 1.98 2 3.96 2 6 C0.68 6.33 -0.64 6.66 -2 7 C-1.34 4.69 -0.68 2.38 0 0 Z " fill="#424041" transform="translate(39,436)"/>
<path d="M0 0 C2.64 0 5.28 0 8 0 C8 0.33 8 0.66 8 1 C6.35 1 4.7 1 3 1 C3 1.66 3 2.32 3 3 C1.68 3.33 0.36 3.66 -1 4 C-1.33 3.34 -1.66 2.68 -2 2 C-1.34 2 -0.68 2 0 2 C0 1.34 0 0.68 0 0 Z " fill="#4C4B4A" transform="translate(190,432)"/>
<path d="M0 0 C0.66 0.33 1.32 0.66 2 1 C1.67 2.32 1.34 3.64 1 5 C-1.97 4.505 -1.97 4.505 -5 4 C-3.73293765 1.46587529 -2.59334288 1.02161992 0 0 Z " fill="#2D2613" transform="translate(279,136)"/>
</svg>
